<?xml version="1.0" standalone="no"?>
<!DOCTYPE svg PUBLIC "-//W3C//DTD SVG 20010904//EN" "http://www.w3.org/TR/2001/REC-SVG-20010904/DTD/svg10.dtd">
<svg xmlns="http://www.w3.org/2000/svg" version="1.0" width="1024.000000pt" height="1024.000000pt" viewBox="0 0 1024.000000 1024.000000" preserveAspectRatio="xMidYMid meet">
<metadata>
Created by potrace 1.16, written by Peter Selinger 2001-2019
<meta name="Producer" content="Online-Convert"/></metadata>
<g transform="translate(0.000000,1024.000000) scale(0.100000,-0.100000)" fill="#000000" stroke="none">
<path d="M5057 9506 c-22 -8 -50 -25 -64 -38 -33 -29 -396 -473 -674 -823 -271 -339 -424 -540 -671 -875 -647 -880 -1033 -1486 -1338 -2105 -198 -402 -272 -591 -340 -870 -91 -374 -103 -729 -39 -1130 98 -610 412 -1233 852 -1691 400 -417 896 -718 1437 -873 286 -82 525 -119 825 -128 231 -6 392 7 645 53 362 66 653 169 983 349 316 173 639 430 874 698 503 572 775 1256 799 2002 24 740 -233 1419 -986 2600 -412 647 -1058 1518 -1788 2410 -249 303 -326 392 -361 409 -42 22 -112 28 -154 12z m170 -738 c778 -941 1614 -2100 2060 -2858 313 -532 508 -995 567 -1345 53 -312 43 -720 -24 -985 -58 -230 -134 -438 -230 -630 -221 -442 -642 -885 -1083 -1140 -501 -288 -1126 -426 -1652 -365 -672 79 -1250 351 -1701 799 -328 327 -549 680 -689 1101 -92 278 -120 463 -120 800 0 334 20 461 120 760 240 720 949 1844 2078 3295 222 284 555 700 561 700 2 0 52 -60 113 -132z"/>
<path d="M4073 5971 c-182 -50 -362 -177 -462 -326 -249 -373 -95 -888 324 -1086 159 -75 331 -86 513 -33 185 54 333 157 425 296 95 144 131 265 131 438 0 316 -199 586 -509 689 -88 30 -116 34 -225 37 -101 3 -139 0 -197 -15z m304 -469 c172 -89 215 -275 99 -432 -93 -127 -306 -148 -428 -41 -87 77 -116 217 -68 329 27 62 101 133 163 156 60 22 179 16 234 -12z"/>
<path d="M5845 5951 c-44 -27 -63 -52 -150 -196 -44 -71 -201 -326 -350 -565 -150 -239 -362 -581 -472 -760 -110 -179 -310 -498 -443 -710 -394 -624 -355 -556 -355 -625 0 -46 5 -67 22 -91 38 -53 75 -64 220 -64 185 0 164 -18 373 320 213 343 605 974 688 1105 90 143 626 1002 770 1234 101 162 102 165 102 226 0 48 -5 68 -21 89 -38 49 -66 56 -216 56 -117 0 -143 -3 -168 -19z"/>
<path d="M5975 4419 c-178 -27 -378 -140 -491 -277 -113 -137 -164 -280 -164 -459 0 -136 21 -225 80 -348 96 -200 250 -319 500 -387 68 -18 109 -23 205 -22 107 1 130 4 208 31 107 38 182 81 258 151 167 153 259 356 259 569 -1 298 -166 546 -454 678 -131 61 -276 84 -401 64z m197 -479 c105 -39 178 -144 186 -267 4 -64 1 -79 -22 -127 -53 -108 -155 -163 -285 -154 -107 8 -189 65 -242 168 -35 67 -33 176 3 246 69 131 219 187 360 134z"/>
</g>
</svg>
