<?xml version="1.0" standalone="no"?>
<!DOCTYPE svg PUBLIC "-//W3C//DTD SVG 20010904//EN"
 "http://www.w3.org/TR/2001/REC-SVG-20010904/DTD/svg10.dtd">
<svg version="1.0" xmlns="http://www.w3.org/2000/svg"
 width="1024.000000pt" height="1024.000000pt" viewBox="0 0 1024.000000 1024.000000"
 preserveAspectRatio="xMidYMid meet">

<g transform="translate(0.000000,1024.000000) scale(0.100000,-0.100000)"
fill="#000000" stroke="none">
<path d="M3305 8379 c-223 -32 -494 -178 -691 -374 -327 -325 -454 -794 -343
-1264 82 -351 336 -683 639 -836 l54 -27 -54 -18 c-326 -103 -652 -302 -892
-543 -336 -337 -532 -732 -614 -1237 -21 -128 -31 -602 -15 -696 16 -88 68
-197 126 -262 236 -263 962 -412 2000 -412 633 0 1118 45 1472 134 409 104
613 255 678 502 9 36 16 106 17 179 1 109 2 115 10 65 47 -277 102 -428 231
-634 83 -133 158 -225 276 -339 231 -220 515 -371 826 -437 147 -31 396 -38
557 -15 212 30 458 112 622 207 375 217 686 620 791 1024 154 592 -19 1223
-451 1649 -251 248 -563 397 -946 452 l-120 18 -55 80 c-75 108 -228 257 -343
334 -90 60 -287 164 -359 189 l-33 12 88 82 c184 174 292 365 351 620 12 53
17 118 16 238 0 145 -3 177 -25 261 -80 300 -239 526 -479 683 -215 139 -420
194 -693 183 -226 -8 -409 -68 -599 -195 -91 -60 -219 -187 -278 -277 -123
-185 -182 -348 -201 -560 -10 -115 -10 -149 5 -253 42 -298 173 -542 396 -734
l53 -46 -53 -17 c-171 -56 -373 -188 -530 -345 l-116 -116 -64 36 c-86 48
-255 122 -358 155 l-83 27 33 21 c202 121 379 281 478 432 220 335 279 735
166 1130 -34 119 -129 311 -203 410 -196 263 -506 455 -822 509 -101 17 -358
20 -465 5z m480 -374 c490 -145 787 -613 700 -1106 -66 -381 -329 -668 -705
-771 -115 -31 -367 -33 -475 -4 -346 94 -600 349 -697 702 -17 64 -21 107 -22
229 0 133 3 161 27 248 50 181 120 309 242 436 141 147 308 242 505 286 104
24 312 14 425 -20z m2373 -171 c316 -65 559 -306 618 -612 19 -98 18 -256 -2
-345 -8 -40 -37 -117 -64 -172 -101 -209 -289 -362 -515 -421 -95 -25 -304
-25 -394 0 -275 75 -484 285 -563 563 -31 108 -30 303 0 416 110 404 514 655
920 571z m202 -1957 c242 -58 453 -163 654 -325 l69 -55 -86 -18 c-570 -115
-1040 -537 -1228 -1101 -43 -127 -79 -291 -79 -361 -1 -62 -16 -26 -23 55 -9
97 -52 284 -100 427 -72 220 -216 484 -357 656 -59 71 -220 232 -275 274 -37
28 -33 34 70 124 209 181 431 286 710 337 93 16 144 19 325 16 188 -3 228 -7
320 -29z m-2538 -302 c217 -35 379 -91 563 -192 403 -223 658 -508 820 -916
99 -251 135 -462 135 -799 0 -251 -7 -280 -78 -336 -212 -167 -879 -272 -1722
-272 -503 0 -906 35 -1280 110 -290 58 -459 131 -509 220 -22 40 -23 43 -19
328 5 325 16 404 89 626 158 482 486 864 924 1076 165 79 405 148 594 170 107
12 368 4 483 -15z m3783 -431 c426 -72 789 -350 974 -744 166 -355 159 -805
-20 -1163 -68 -135 -148 -246 -254 -352 -249 -250 -580 -385 -940 -385 -501 0
-974 291 -1198 736 -39 77 -94 244 -114 342 -26 134 -24 406 5 539 57 264 170
472 356 659 313 313 740 445 1191 368z"/>
<path d="M7245 5148 c-333 -22 -672 -192 -887 -443 -213 -250 -311 -524 -311
-870 0 -178 14 -276 63 -426 64 -195 158 -347 310 -500 193 -195 418 -317 692
-375 117 -25 378 -25 508 0 273 53 480 163 676 360 196 195 305 398 366 679
28 130 31 396 5 520 -78 376 -299 690 -619 878 -233 137 -507 197 -803 177z
m914 -674 c80 -77 118 -121 113 -129 -9 -17 -299 -331 -425 -462 -63 -65 -96
-106 -91 -114 4 -7 3 -10 -3 -6 -6 4 -89 -75 -184 -176 -265 -278 -390 -406
-431 -438 l-36 -29 -345 345 -344 345 114 116 114 115 27 -20 c15 -12 99 -90
187 -175 87 -85 164 -152 169 -149 5 4 6 1 1 -6 -8 -14 61 -92 80 -90 5 1 55
49 109 107 55 59 252 270 439 469 186 199 347 374 358 388 11 14 22 25 24 25
2 0 58 -52 124 -116z"/>
</g>
</svg>
