<?xml version="1.0" standalone="no"?>
<!DOCTYPE svg PUBLIC "-//W3C//DTD SVG 20010904//EN" "http://www.w3.org/TR/2001/REC-SVG-20010904/DTD/svg10.dtd">
<svg xmlns="http://www.w3.org/2000/svg" version="1.0" width="1024.000000pt" height="1024.000000pt" viewBox="0 0 1024.000000 1024.000000" preserveAspectRatio="xMidYMid meet">
<metadata>
Created by potrace 1.16, written by Peter Selinger 2001-2019
<meta name="Producer" content="Online-Convert"/></metadata>
<g transform="translate(0.000000,1024.000000) scale(0.100000,-0.100000)" fill="#000000" stroke="none">
<path d="M3415 8409 c-175 -29 -388 -122 -535 -233 -423 -317 -597 -841 -446 -1343 53 -176 202 -422 326 -535 181 -167 372 -267 615 -324 117 -28 375 -26 500 3 253 59 472 185 645 370 214 229 329 521 331 840 1 126 -12 215 -47 332 -138 454 -511 792 -976 882 -105 20 -316 25 -413 8z m380 -408 c156 -38 314 -120 406 -211 107 -106 174 -217 225 -370 26 -79 28 -97 28 -245 1 -156 0 -163 -33 -258 -94 -272 -334 -484 -627 -553 -52 -12 -103 -15 -209 -12 -125 4 -151 8 -235 37 -275 93 -472 299 -552 576 -20 68 -23 102 -23 230 1 143 2 155 33 244 44 126 100 218 191 314 119 124 254 205 411 246 103 27 276 28 385 2z"/>
<path d="M5996 8229 c-380 -49 -718 -301 -866 -647 -61 -142 -83 -246 -84 -402 -1 -195 27 -315 116 -494 61 -124 132 -218 248 -329 l107 -103 -97 -37 c-121 -48 -269 -129 -381 -210 -87 -62 -174 -136 -167 -142 1 -1 46 -26 98 -54 52 -27 126 -72 165 -98 l70 -48 90 61 c174 119 367 200 570 240 137 27 377 25 523 -4 199 -40 383 -116 574 -235 l106 -67 268 0 269 0 -95 96 c-242 243 -427 365 -708 464 l-103 36 40 28 c58 41 210 201 260 275 149 220 214 497 176 754 -27 181 -86 326 -196 480 -225 315 -605 484 -983 436z m330 -423 c161 -51 313 -181 392 -334 57 -109 76 -186 76 -312 0 -126 -19 -203 -75 -311 -78 -149 -213 -265 -378 -323 -70 -24 -107 -31 -194 -34 -169 -7 -284 25 -419 114 -221 147 -338 428 -284 684 21 103 91 241 162 318 93 104 235 188 365 217 96 22 253 14 355 -19z"/>
<path d="M2715 5903 c-114 -25 -345 -133 -495 -230 -330 -215 -575 -534 -675 -878 -53 -185 -58 -237 -62 -715 -6 -599 1 -639 140 -773 166 -162 340 -254 654 -347 516 -152 1300 -193 2056 -105 474 55 888 179 1137 342 91 60 194 169 229 243 l26 55 3 495 c4 526 1 564 -45 745 -102 397 -360 732 -743 967 -171 104 -398 197 -500 205 -62 5 -73 2 -202 -51 -75 -31 -197 -74 -270 -97 -113 -34 -153 -42 -268 -49 -270 -16 -447 19 -741 150 -93 42 -120 50 -168 49 -31 -1 -65 -3 -76 -6z m172 -428 c125 -55 333 -114 483 -137 109 -16 164 -19 285 -14 236 8 374 39 642 142 l142 55 88 -37 c139 -57 241 -113 343 -190 246 -184 395 -409 463 -699 20 -85 21 -117 22 -549 l0 -459 -45 -39 c-25 -22 -90 -62 -145 -89 -253 -123 -608 -204 -1100 -251 -182 -17 -886 -17 -1035 0 -388 45 -628 96 -846 181 -157 62 -249 121 -292 189 l-32 49 0 415 c0 451 6 517 56 673 94 288 304 533 591 687 110 60 254 119 278 114 11 -2 57 -20 102 -41z"/>
<path d="M6295 5343 c-96 -13 -110 -37 -110 -199 0 -157 9 -173 110 -191 38 -7 69 -14 71 -15 1 -2 5 -111 9 -243 10 -340 42 -477 154 -664 85 -141 228 -292 354 -374 26 -17 47 -33 47 -36 0 -3 -35 -28 -78 -56 -157 -101 -330 -309 -402 -481 -71 -171 -92 -326 -83 -622 l6 -197 -53 -2 c-56 -3 -92 -20 -110 -53 -15 -27 -24 -167 -16 -225 5 -33 17 -57 36 -77 l28 -28 1236 0 c762 0 1244 4 1260 10 43 16 56 57 56 179 0 60 -4 121 -10 136 -12 32 -80 64 -135 65 l-40 0 4 171 c6 324 -26 514 -119 699 -76 151 -222 317 -385 436 -61 45 -78 64 -56 64 19 0 173 122 237 187 90 94 135 154 188 253 94 179 123 326 128 657 l3 202 64 11 c85 15 98 23 111 68 13 48 13 248 0 273 -6 10 -25 27 -43 36 -30 17 -107 18 -1232 19 -660 1 -1213 -1 -1230 -3z m1962 -630 c-6 -265 -16 -321 -72 -432 -67 -134 -171 -235 -355 -346 -118 -71 -146 -97 -176 -160 -18 -39 -24 -67 -24 -126 0 -151 37 -214 183 -312 117 -79 226 -174 306 -268 58 -69 72 -93 96 -167 28 -84 29 -95 34 -360 l6 -272 -85 0 -85 0 -1 68 c-1 87 -26 170 -61 204 -60 58 -64 58 -531 58 l-429 0 -44 -23 c-24 -13 -52 -38 -63 -56 -25 -43 -46 -132 -46 -198 l0 -53 -69 0 c-38 0 -77 -3 -86 -6 -15 -6 -16 15 -13 272 3 273 4 281 30 353 55 151 175 289 358 408 141 92 155 105 188 168 24 45 27 61 27 160 0 105 -1 113 -31 165 -27 47 -48 67 -143 131 -200 137 -295 237 -366 384 -52 107 -63 174 -71 423 l-7 222 768 0 768 0 -6 -237z"/>
<path d="M7020 4282 c0 -61 190 -252 335 -337 51 -30 106 -58 122 -61 108 -21 483 283 483 393 l0 23 -470 0 c-449 0 -470 -1 -470 -18z"/>
</g>
</svg>
