<?xml version="1.0" standalone="no"?>
<!DOCTYPE svg PUBLIC "-//W3C//DTD SVG 20010904//EN"
 "http://www.w3.org/TR/2001/REC-SVG-20010904/DTD/svg10.dtd">
<svg version="1.0" xmlns="http://www.w3.org/2000/svg"
 width="1024.000000pt" height="1024.000000pt" viewBox="0 0 1024.000000 1024.000000"
 preserveAspectRatio="xMidYMid meet">

<g transform="translate(0.000000,1024.000000) scale(0.100000,-0.100000)"
fill="#000000" stroke="none">
<path d="M3894 9210 c-210 -55 -393 -212 -484 -413 -43 -97 -60 -183 -65 -332
l-4 -136 -623 -2 c-616 -2 -624 -2 -689 -24 -114 -39 -226 -125 -295 -226 -13
-20 -39 -72 -57 -114 l-32 -78 -3 -274 c-4 -300 3 -372 46 -459 35 -72 125
-154 199 -182 36 -14 87 -24 133 -26 l75 -3 7 -108 c32 -497 52 -794 78 -1133
33 -422 57 -754 90 -1235 11 -165 38 -536 60 -825 22 -289 47 -624 55 -745 9
-121 26 -353 40 -515 13 -162 29 -356 35 -431 22 -284 106 -482 280 -658 121
-122 267 -204 454 -254 l81 -22 1820 -2 c1615 -3 1829 -2 1903 12 188 35 332
110 478 248 100 95 163 180 219 298 63 134 81 240 109 669 12 178 68 900 96
1245 33 397 38 478 75 1060 14 220 34 515 45 655 11 140 24 327 30 415 6 88
22 304 35 480 13 176 31 435 40 575 9 140 18 261 20 268 3 8 16 10 44 6 84
-13 225 40 299 114 25 25 59 76 80 120 33 68 37 87 40 172 2 52 -1 192 -6 310
-11 243 -21 286 -93 397 -82 126 -245 239 -380 263 -35 7 -277 9 -641 8 l-585
-3 -6 155 c-10 261 -58 382 -212 535 -99 99 -165 142 -277 183 l-73 27 -1185
2 c-1131 2 -1188 1 -1256 -17z m2371 -464 c59 -27 119 -90 148 -155 16 -35 22
-72 25 -153 l4 -106 -1213 -4 c-668 -2 -1262 -2 -1321 0 l-108 3 0 78 c0 184
66 295 203 342 49 17 121 18 1132 19 l1080 0 50 -24z m1782 -903 c19 -9 46
-32 61 -51 27 -35 27 -38 30 -213 l4 -178 -3022 2 -3022 2 1 164 c2 189 10
217 74 259 l41 27 1955 5 c1076 3 2381 4 2900 2 845 -2 948 -4 978 -19z m-369
-1130 c-9 -131 -24 -330 -33 -443 -9 -113 -31 -416 -50 -675 -19 -258 -46
-625 -60 -815 -13 -190 -38 -545 -55 -790 -27 -394 -45 -624 -80 -1045 -14
-159 -37 -536 -45 -710 -12 -260 -23 -359 -51 -433 -50 -135 -179 -255 -327
-303 l-72 -24 -1790 0 -1790 0 -65 24 c-138 50 -242 142 -303 266 -45 93 -43
69 -92 830 -14 209 -34 486 -45 615 -11 129 -33 426 -50 660 -35 506 -51 713
-90 1205 -16 204 -39 512 -50 685 -26 396 -78 1091 -85 1148 l-6 42 2578 0
2579 0 -18 -237z"/>
<path d="M4818 6700 c-165 -20 -334 -110 -450 -241 l-55 -61 -57 11 c-96 18
-325 -12 -447 -58 -169 -64 -295 -178 -388 -353 -64 -118 -76 -172 -75 -338 0
-132 2 -152 28 -230 35 -105 66 -167 122 -247 l44 -62 0 -1208 c0 -1317 -2
-1258 57 -1378 57 -118 186 -226 317 -268 l71 -22 890 0 c719 0 901 3 945 14
177 44 319 169 382 337 21 55 23 74 21 267 l-2 208 112 -7 c349 -21 639 140
738 409 23 62 23 66 27 618 3 624 2 644 -65 779 -68 139 -206 250 -369 295
-40 11 -119 18 -251 22 l-193 6 0 82 c0 76 3 89 40 161 56 112 75 190 74 309
0 162 -30 253 -122 375 -119 159 -249 256 -392 293 -31 8 -118 18 -195 22
l-140 8 -56 51 c-71 64 -193 136 -284 169 -60 21 -215 50 -249 46 -6 -1 -41
-5 -78 -9z m223 -386 c118 -35 192 -89 283 -208 27 -36 31 -38 75 -33 25 2 83
13 128 23 71 16 90 17 145 6 144 -29 254 -114 298 -228 19 -50 21 -73 18 -149
-8 -144 -64 -238 -173 -290 -116 -54 -258 -52 -364 6 -73 40 -114 36 -163 -18
-94 -103 -147 -137 -249 -156 -75 -13 -159 6 -287 68 -93 45 -137 54 -171 35
-10 -5 -47 -38 -82 -73 -173 -173 -405 -202 -594 -76 -163 109 -233 248 -223
441 11 180 111 308 290 369 89 30 249 30 332 0 107 -38 154 -22 209 72 50 85
167 176 267 208 70 23 190 24 261 3z m497 -1249 c99 -20 154 -19 247 5 43 11
81 17 84 14 3 -3 6 -353 6 -777 0 -425 4 -939 9 -1144 7 -301 7 -380 -4 -419
-18 -63 -79 -126 -140 -142 -34 -10 -242 -12 -881 -10 l-836 3 -48 30 c-32 20
-57 46 -76 80 l-27 50 -3 465 c-2 354 10 1650 15 1650 1 0 24 -9 51 -19 126
-47 324 -48 461 -1 60 21 198 98 243 135 l26 23 105 -35 c132 -44 274 -55 384
-29 76 18 185 71 237 116 22 20 41 28 54 25 11 -3 53 -12 93 -20z m1043 -274
c30 -12 69 -36 87 -53 64 -67 64 -64 70 -588 5 -463 4 -477 -15 -521 -61 -138
-171 -188 -410 -189 l-93 0 0 684 0 685 53 4 c113 10 250 0 308 -22z"/>
<path d="M5445 4660 c-41 -9 -65 -23 -100 -60 l-30 -31 -3 -696 c-2 -692 -2
-696 19 -740 32 -67 80 -98 149 -98 45 1 66 6 97 27 75 49 71 17 72 733 0 352
-2 669 -6 704 -4 51 -11 70 -36 97 -47 54 -104 76 -162 64z"/>
<path d="M4841 4650 c-18 -4 -50 -24 -69 -43 -28 -28 -37 -47 -43 -89 -4 -29
-8 -345 -8 -701 -1 -624 0 -649 19 -686 50 -98 154 -128 247 -71 67 40 64 6
66 790 1 703 1 710 -19 737 -41 54 -121 81 -193 63z"/>
<path d="M4212 4633 c-19 -9 -44 -32 -57 -51 l-24 -35 5 -696 c6 -741 5 -721
56 -767 37 -34 63 -44 115 -44 35 0 58 7 84 24 70 48 67 14 70 788 l2 697 -26
34 c-14 19 -41 42 -60 51 -44 20 -122 20 -165 -1z"/>
</g>
</svg>
