<?xml version="1.0" standalone="no"?>
<!DOCTYPE svg PUBLIC "-//W3C//DTD SVG 20010904//EN"
 "http://www.w3.org/TR/2001/REC-SVG-20010904/DTD/svg10.dtd">
<svg version="1.0" xmlns="http://www.w3.org/2000/svg"
 width="1024.000000pt" height="1024.000000pt" viewBox="0 0 1024.000000 1024.000000"
 preserveAspectRatio="xMidYMid meet">

<g transform="translate(0.000000,1024.000000) scale(0.100000,-0.100000)"
fill="#000000" stroke="none">
<path d="M2962 8051 c-62 -21 -114 -68 -142 -126 -16 -34 -20 -62 -20 -155 0
-131 16 -179 77 -229 l36 -29 -52 -424 c-29 -233 -59 -479 -68 -547 l-16 -124
-51 -59 c-127 -149 -195 -266 -237 -408 -21 -69 -23 -100 -27 -392 l-4 -318
-91 0 c-51 0 -109 -5 -129 -10 -62 -18 -120 -69 -153 -135 l-30 -60 -3 -1239
c-3 -1415 -9 -1311 81 -1400 97 -95 -202 -86 2783 -86 2905 0 2685 -5 2775 64
25 18 58 58 74 87 l30 54 3 287 3 286 27 18 c148 94 317 289 411 474 94 184
133 351 134 570 0 162 -16 265 -62 400 -110 327 -373 616 -678 745 l-91 38 -5
251 c-4 217 -8 263 -27 336 -26 101 -82 225 -138 306 -40 59 -54 76 -120 146
l-34 36 -29 239 c-15 131 -45 378 -65 549 l-37 311 41 37 c59 54 75 110 70
244 -3 95 -6 112 -31 154 -31 53 -79 94 -134 114 -47 16 -637 20 -695 4 -63
-18 -130 -70 -158 -125 -22 -44 -25 -61 -25 -165 0 -130 14 -171 79 -228 l36
-31 -68 -550 -69 -550 -60 -68 c-113 -128 -184 -251 -219 -379 -9 -35 -19 -63
-21 -61 -2 2 -12 37 -23 76 -35 126 -96 231 -206 359 -40 45 -65 84 -69 105
-5 30 -95 780 -116 971 l-10 89 39 41 c64 67 72 90 72 221 0 130 -11 169 -63
223 -18 19 -50 43 -72 55 -38 21 -55 22 -350 25 -206 3 -327 0 -362 -8 -74
-16 -134 -60 -169 -122 -27 -50 -29 -60 -29 -168 0 -92 4 -123 18 -152 20 -40
53 -79 80 -94 16 -9 14 -30 -18 -299 -19 -160 -41 -348 -50 -420 -33 -277 -48
-381 -57 -398 -5 -10 -36 -47 -68 -83 -99 -109 -186 -265 -205 -367 -9 -47
-16 -40 -39 38 -35 116 -102 226 -210 344 -36 39 -66 73 -66 75 0 4 -44 372
-100 841 l-29 250 39 40 c58 60 70 97 70 222 0 92 -4 115 -24 159 -13 28 -41
65 -62 82 -69 57 -104 62 -438 62 -266 -1 -307 -3 -354 -19z m678 -181 c16
-16 20 -33 20 -91 0 -118 28 -109 -332 -109 -276 0 -314 2 -330 17 -10 9 -18
23 -18 32 0 10 5 7 13 -9 l13 -25 308 -3 c219 -2 313 1 322 9 21 17 19 152 -2
173 -13 14 -56 16 -314 16 -332 0 -324 2 -335 -68 -10 -58 -16 -62 -10 -8 9
89 -4 86 342 86 290 0 304 -1 323 -20z m1678 4 c18 -12 22 -24 21 -62 l-2 -47
-6 48 c-4 27 -14 53 -22 58 -7 5 -149 9 -315 9 -351 0 -331 6 -337 -105 l-3
-70 -2 73 c-3 118 -21 112 341 112 258 0 306 -2 325 -16z m1682 -6 c16 -18 20
-35 20 -94 0 -53 -4 -77 -16 -88 -13 -14 -57 -16 -329 -16 -313 0 -314 0 -329
22 -25 35 -22 148 4 176 21 22 25 22 325 22 300 0 304 0 325 -22z m-1670 -177
c-10 -21 -18 -21 -329 -21 -292 0 -320 1 -332 18 -11 14 -11 15 1 5 11 -10 90
-13 325 -13 326 0 334 1 336 45 1 16 2 16 6 3 2 -9 -1 -26 -7 -37z m-1757
-338 c9 -76 32 -273 52 -438 61 -519 65 -548 83 -576 9 -15 54 -72 100 -126
95 -111 152 -217 182 -337 18 -70 20 -113 20 -358 l0 -278 -690 0 -690 0 0
276 c0 308 8 365 65 491 41 89 79 145 162 236 36 40 71 86 79 102 13 27 29
154 120 918 l28 227 236 0 237 0 16 -137z m1671 65 c6 -73 55 -489 102 -863
27 -222 22 -210 132 -336 67 -78 114 -154 149 -239 44 -110 53 -190 53 -476
l0 -264 -686 0 -686 0 5 298 c5 321 8 349 67 479 36 79 75 135 156 226 36 40
71 84 79 98 8 15 36 215 69 490 30 255 61 508 67 562 l12 97 237 0 237 0 7
-72z m1676 42 c0 -17 11 -121 25 -233 13 -111 40 -341 60 -512 20 -170 40
-326 45 -345 6 -21 36 -66 74 -108 120 -133 179 -237 218 -382 16 -59 21 -121
25 -289 l6 -213 -31 6 c-65 15 -237 22 -330 15 -161 -12 -317 -56 -459 -128
l-62 -31 -251 0 -251 0 3 303 c4 297 4 303 31 382 36 108 100 213 191 315 41
47 80 99 85 115 6 17 33 221 61 455 28 234 58 477 66 540 7 63 14 121 14 128
0 9 55 12 240 12 l240 0 0 -30z m385 -2251 c384 -64 716 -345 842 -714 71
-210 71 -491 -2 -704 -90 -266 -302 -501 -559 -622 -307 -143 -655 -140 -961
11 -641 315 -793 1176 -300 1708 243 262 609 382 980 321z m-1111 -205 c-139
-148 -253 -350 -300 -531 l-27 -103 -1819 0 -1818 0 0 314 c0 294 1 315 19
337 l19 24 1984 5 c1090 3 1984 5 1985 4 2 0 -18 -23 -43 -50z m-3754 -1009
l0 -195 -105 0 -105 0 0 195 0 195 105 0 105 0 0 -195z m1570 0 l0 -195 -690
0 -690 0 0 195 0 195 690 0 690 0 0 -195z m1670 0 l0 -195 -685 0 -685 0 0
195 0 195 685 0 685 0 0 -195z m323 -449 c138 -270 422 -505 722 -599 203 -63
430 -79 619 -43 61 12 281 79 281 86 0 0 -2 -99 -5 -221 l-5 -221 -33 -29 -32
-29 -2626 0 c-1781 0 -2631 3 -2645 10 -48 26 -49 33 -49 595 l0 525 1868 0
1867 0 38 -74z"/>
<path d="M6356 7858 c-18 -26 -22 -129 -6 -159 10 -18 24 -19 323 -19 230 0
316 3 325 12 7 7 12 41 12 83 0 111 19 105 -338 105 -300 0 -301 0 -316 -22z"/>
<path d="M7028 4871 l-33 -29 -3 -281 -3 -281 -257 0 c-141 0 -273 -5 -293
-10 -96 -27 -123 -144 -49 -215 l31 -30 285 -3 284 -3 0 -270 c0 -302 2 -314
66 -344 61 -29 118 -6 153 62 7 14 11 110 11 287 l0 266 260 0 c281 0 311 5
342 52 41 62 26 137 -35 182 -27 20 -41 21 -295 21 l-267 0 -5 278 -5 279 -37
34 c-50 45 -103 47 -150 5z"/>
<path d="M2265 5015 l-25 -24 0 -306 0 -305 23 1 c16 1 18 2 5 6 -17 4 -18 27
-18 294 0 286 3 321 34 341 17 11 3870 10 3881 -1 6 -6 17 -4 29 5 17 12 -237
14 -1943 14 l-1962 0 -24 -25z"/>
<path d="M2375 5012 c4 -4 15 -8 26 -8 32 -2 35 -5 14 -14 -16 -7 -17 -9 -3
-9 9 -1 20 4 23 9 4 7 13 6 26 -1 11 -5 25 -8 32 -5 7 2 4 5 -5 5 -10 1 -18 9
-18 19 0 14 -2 15 -10 2 -5 -8 -10 -10 -10 -5 0 6 -18 11 -41 12 -23 1 -38 -1
-34 -5z"/>
<path d="M2521 5004 c0 -11 3 -14 6 -6 3 7 2 16 -1 19 -3 4 -6 -2 -5 -13z"/>
<path d="M2549 5003 c-13 -17 -13 -17 6 -3 11 8 22 16 24 17 2 2 0 3 -6 3 -6
0 -17 -8 -24 -17z"/>
<path d="M2680 5016 c0 -2 7 -7 16 -10 8 -3 12 -2 9 4 -6 10 -25 14 -25 6z"/>
<path d="M2933 5013 c9 -2 14 -9 11 -15 -4 -7 -2 -8 5 -4 15 10 4 26 -17 25
-15 -1 -15 -2 1 -6z"/>
<path d="M3160 5010 c-8 -5 -10 -10 -5 -10 6 0 17 5 25 10 8 5 11 10 5 10 -5
0 -17 -5 -25 -10z"/>
<path d="M3238 5013 c7 -3 16 -2 19 1 4 3 -2 6 -13 5 -11 0 -14 -3 -6 -6z"/>
<path d="M4030 5009 c0 -5 5 -7 10 -4 6 3 10 8 10 11 0 2 -4 4 -10 4 -5 0 -10
-5 -10 -11z"/>
<path d="M4065 5010 c-3 -5 -1 -18 5 -27 11 -17 11 -16 5 1 -3 11 0 23 7 28 9
5 10 8 1 8 -6 0 -15 -4 -18 -10z"/>
<path d="M4108 5013 c6 -3 9 -10 5 -16 -5 -9 -3 -9 8 -1 8 6 21 14 29 17 8 2
-1 5 -20 4 -19 0 -29 -2 -22 -4z"/>
<path d="M4208 5013 c7 -3 16 -2 19 1 4 3 -2 6 -13 5 -11 0 -14 -3 -6 -6z"/>
<path d="M4288 5013 c7 -3 16 -2 19 1 4 3 -2 6 -13 5 -11 0 -14 -3 -6 -6z"/>
<path d="M4600 5016 c0 -2 7 -9 15 -16 13 -11 14 -10 9 4 -5 14 -24 23 -24 12z"/>
<path d="M5050 5009 c0 -5 5 -7 10 -4 6 3 10 8 10 11 0 2 -4 4 -10 4 -5 0 -10
-5 -10 -11z"/>
<path d="M5080 5010 c0 -5 7 -7 15 -4 8 4 15 8 15 10 0 2 -7 4 -15 4 -8 0 -15
-4 -15 -10z"/>
<path d="M5150 5013 c0 -5 11 -8 24 -8 13 0 22 3 19 8 -2 4 -13 7 -24 7 -10 0
-19 -3 -19 -7z"/>
<path d="M5248 5013 c7 -3 16 -2 19 1 4 3 -2 6 -13 5 -11 0 -14 -3 -6 -6z"/>
<path d="M5686 5009 c6 -11 31 -12 37 -1 3 4 -6 8 -19 8 -13 1 -21 -2 -18 -7z"/>
<path d="M5740 5012 c0 -5 7 -9 15 -9 8 0 12 4 9 9 -3 4 -9 8 -15 8 -5 0 -9
-4 -9 -8z"/>
<path d="M5804 5013 c9 -9 51 -11 65 -3 12 7 4 9 -27 8 -23 -1 -40 -3 -38 -5z"/>
<path d="M5886 5004 c-5 -14 -4 -15 9 -4 17 14 19 20 6 20 -5 0 -12 -7 -15
-16z"/>
<path d="M3000 5000 c0 -5 5 -10 11 -10 5 0 7 5 4 10 -3 6 -8 10 -11 10 -2 0
-4 -4 -4 -10z"/>
<path d="M5985 5000 c3 -5 8 -10 11 -10 2 0 4 5 4 10 0 6 -5 10 -11 10 -5 0
-7 -4 -4 -10z"/>
<path d="M5800 4991 c0 -7 -5 -9 -12 -5 -7 5 -8 3 -3 -5 5 -9 10 -10 18 -2 6
6 8 14 4 18 -4 3 -7 1 -7 -6z"/>
<path d="M6136 4972 l-19 -27 26 24 c28 26 32 31 20 31 -5 0 -17 -13 -27 -28z"/>
<path d="M4170 4981 c0 -6 4 -13 10 -16 6 -3 7 1 4 9 -7 18 -14 21 -14 7z"/>
<path d="M5680 4983 c8 -3 18 -10 21 -15 3 -5 9 -3 12 6 5 12 0 16 -21 15 -16
0 -21 -3 -12 -6z"/>
<path d="M5745 4980 c-3 -5 -1 -10 4 -10 6 0 11 5 11 10 0 6 -2 10 -4 10 -3 0
-8 -4 -11 -10z"/>
<path d="M2580 4972 c0 -5 7 -9 15 -9 8 0 12 4 9 9 -3 4 -9 8 -15 8 -5 0 -9
-4 -9 -8z"/>
<path d="M5810 4962 c0 -5 7 -9 15 -9 8 0 12 4 9 9 -3 4 -9 8 -15 8 -5 0 -9
-4 -9 -8z"/>
<path d="M2265 4930 c3 -5 8 -10 11 -10 2 0 4 5 4 10 0 6 -5 10 -11 10 -5 0
-7 -4 -4 -10z"/>
<path d="M6078 4903 c-19 -23 -31 -43 -24 -43 2 0 14 14 26 30 23 33 22 40 -2
13z"/>
<path d="M2265 4880 c-3 -5 -1 -10 4 -10 6 0 11 5 11 10 0 6 -2 10 -4 10 -3 0
-8 -4 -11 -10z"/>
<path d="M5963 4875 c0 -8 4 -12 9 -9 5 3 6 10 3 15 -9 13 -12 11 -12 -6z"/>
<path d="M2367 4859 c7 -7 15 -10 18 -7 3 3 -2 9 -12 12 -14 6 -15 5 -6 -5z"/>
<path d="M2275 4830 c-10 -11 -15 -23 -12 -27 4 -3 7 -1 7 6 0 7 5 9 13 5 6
-4 9 -4 5 1 -4 4 -3 14 3 22 18 21 4 15 -16 -7z"/>
<path d="M6033 4838 c-15 -20 -25 -38 -20 -38 3 0 12 11 21 25 17 26 16 35 -1
13z"/>
<path d="M5908 4833 c7 -3 16 -2 19 1 4 3 -2 6 -13 5 -11 0 -14 -3 -6 -6z"/>
<path d="M5935 4789 c-4 -6 -5 -12 -2 -15 2 -3 7 2 10 11 7 17 1 20 -8 4z"/>
<path d="M5981 4754 c-12 -20 -20 -39 -17 -41 2 -3 14 13 26 36 25 51 20 54
-9 5z"/>
<path d="M2266 4762 c-3 -4 4 -9 15 -9 23 -2 25 3 4 10 -8 4 -16 3 -19 -1z"/>
<path d="M2356 4757 c3 -10 9 -15 12 -12 3 3 0 11 -7 18 -10 9 -11 8 -5 -6z"/>
<path d="M2274 4733 c4 -7 2 -13 -4 -13 -6 0 -8 -5 -4 -11 4 -8 9 -8 17 0 8 8
7 14 -2 24 -11 10 -13 10 -7 0z"/>
<path d="M4194 4722 c4 -3 14 -7 22 -8 9 -1 13 0 10 4 -4 3 -14 7 -22 8 -9 1
-13 0 -10 -4z"/>
<path d="M2365 4710 c3 -5 8 -10 11 -10 2 0 4 5 4 10 0 6 -5 10 -11 10 -5 0
-7 -4 -4 -10z"/>
<path d="M2626 4703 c-6 -14 -5 -15 5 -6 7 7 10 15 7 18 -3 3 -9 -2 -12 -12z"/>
<path d="M5796 4708 c3 -5 10 -6 15 -3 13 9 11 12 -6 12 -8 0 -12 -4 -9 -9z"/>
<path d="M2285 4690 c-3 -6 1 -7 9 -4 18 7 21 14 7 14 -6 0 -13 -4 -16 -10z"/>
<path d="M4208 4693 c-24 -6 -29 -29 -7 -30 11 -1 17 2 14 7 -3 5 3 10 12 12
10 2 14 6 8 9 -5 3 -17 4 -27 2z"/>
<path d="M2610 4676 c0 -2 7 -7 16 -10 8 -3 12 -2 9 4 -6 10 -25 14 -25 6z"/>
<path d="M5935 4660 c-3 -11 -11 -20 -17 -20 -6 0 -9 -2 -6 -6 3 -3 -5 -35
-18 -72 -13 -37 -23 -74 -23 -82 0 -8 15 26 33 75 18 50 36 98 41 108 4 9 5
17 2 17 -3 0 -9 -9 -12 -20z"/>
<path d="M2263 4655 c-3 -9 -3 -18 -1 -21 3 -3 8 4 11 16 6 23 -1 27 -10 5z"/>
<path d="M2297 4656 c-4 -10 -1 -13 8 -9 8 3 12 9 9 14 -7 12 -11 11 -17 -5z"/>
<path d="M2260 4606 c0 -9 5 -16 10 -16 6 0 10 4 10 9 0 6 -4 13 -10 16 -5 3
-10 -1 -10 -9z"/>
<path d="M2260 4570 c0 -5 5 -10 11 -10 5 0 7 5 4 10 -3 6 -8 10 -11 10 -2 0
-4 -4 -4 -10z"/>
<path d="M2296 4561 c-4 -5 3 -7 14 -4 23 6 26 13 6 13 -8 0 -17 -4 -20 -9z"/>
<path d="M2383 4555 c0 -8 4 -12 9 -9 5 3 6 10 3 15 -9 13 -12 11 -12 -6z"/>
<path d="M2528 4563 c7 -3 16 -2 19 1 4 3 -2 6 -13 5 -11 0 -14 -3 -6 -6z"/>
<path d="M2871 4554 c0 -11 3 -14 6 -6 3 7 2 16 -1 19 -3 4 -6 -2 -5 -13z"/>
<path d="M2260 4520 c0 -35 9 -37 41 -10 15 12 18 19 9 18 -8 -2 -21 -10 -28
-18 -10 -13 -11 -11 -8 13 3 15 0 27 -5 27 -5 0 -9 -13 -9 -30z"/>
<path d="M2853 4525 c0 -8 4 -12 9 -9 5 3 6 10 3 15 -9 13 -12 11 -12 -6z"/>
<path d="M5760 4530 c-9 -6 -10 -10 -3 -10 6 0 15 5 18 10 8 12 4 12 -15 0z"/>
<path d="M2350 4520 c0 -5 5 -10 11 -10 5 0 7 5 4 10 -3 6 -8 10 -11 10 -2 0
-4 -4 -4 -10z"/>
<path d="M2380 4526 c0 -2 8 -10 18 -17 15 -13 16 -12 3 4 -13 16 -21 21 -21
13z"/>
<path d="M2445 4520 c3 -5 8 -10 11 -10 2 0 4 5 4 10 0 6 -5 10 -11 10 -5 0
-7 -4 -4 -10z"/>
<path d="M2363 4487 c2 -6 8 -12 13 -12 5 0 15 -4 23 -9 9 -6 12 -5 9 4 -2 7
-14 17 -27 22 -16 6 -22 5 -18 -5z"/>
<path d="M2455 4490 c-18 -8 -18 -9 -2 -9 10 -1 15 -5 12 -11 -3 -5 -2 -10 4
-10 5 0 9 9 8 20 -1 11 -1 20 -2 19 0 0 -9 -4 -20 -9z"/>
<path d="M4216 4482 c-3 -5 1 -9 9 -9 8 0 12 4 9 9 -3 4 -7 8 -9 8 -2 0 -6 -4
-9 -8z"/>
<path d="M4535 4480 c-3 -5 1 -10 10 -10 9 0 13 5 10 10 -3 6 -8 10 -10 10 -2
0 -7 -4 -10 -10z"/>
<path d="M2538 4473 c7 -3 16 -2 19 1 4 3 -2 6 -13 5 -11 0 -14 -3 -6 -6z"/>
<path d="M2420 4449 c0 -5 5 -7 10 -4 6 3 10 8 10 11 0 2 -4 4 -10 4 -5 0 -10
-5 -10 -11z"/>
<path d="M5862 4440 c0 -14 2 -19 5 -12 2 6 2 18 0 25 -3 6 -5 1 -5 -13z"/>
<path d="M2261 4424 c0 -11 3 -14 6 -6 3 7 2 16 -1 19 -3 4 -6 -2 -5 -13z"/>
<path d="M2605 4430 c3 -5 8 -10 11 -10 2 0 4 5 4 10 0 6 -5 10 -11 10 -5 0
-7 -4 -4 -10z"/>
<path d="M2297 4416 c-4 -10 -1 -13 8 -9 8 3 12 9 9 14 -7 12 -11 11 -17 -5z"/>
<path d="M2421 4404 c0 -11 3 -14 6 -6 3 7 2 16 -1 19 -3 4 -6 -2 -5 -13z"/>
<path d="M4299 4403 c-13 -16 -12 -17 4 -4 9 7 17 15 17 17 0 8 -8 3 -21 -13z"/>
<path d="M2336 4395 c4 -8 8 -15 10 -15 2 0 4 7 4 15 0 8 -4 15 -10 15 -5 0
-7 -7 -4 -15z"/>
<path d="M2385 4400 c3 -5 8 -10 11 -10 2 0 4 5 4 10 0 6 -5 10 -11 10 -5 0
-7 -4 -4 -10z"/>
<path d="M2547 4398 c2 -5 13 -8 24 -8 10 0 19 3 19 8 0 4 -11 7 -24 7 -13 0
-22 -3 -19 -7z"/>
<path d="M2605 4400 c-3 -5 3 -10 15 -10 12 0 18 5 15 10 -3 6 -10 10 -15 10
-5 0 -12 -4 -15 -10z"/>
<path d="M2713 4399 c-11 -5 2 -8 35 -8 28 -1 52 1 52 3 0 8 -69 12 -87 5z"/>
<path d="M3785 4400 c-18 -8 -17 -9 8 -9 16 -1 26 3 22 9 -3 6 -7 10 -8 9 -1
0 -11 -4 -22 -9z"/>
<path d="M3892 4401 c-8 -5 4 -8 29 -9 46 -2 49 2 9 11 -14 3 -31 3 -38 -2z"/>
<path d="M4095 4400 c-3 -5 -1 -10 4 -10 6 0 11 5 11 10 0 6 -2 10 -4 10 -3 0
-8 -4 -11 -10z"/>
<path d="M4440 4399 c-26 -5 -20 -7 28 -6 34 0 60 3 57 5 -8 8 -45 8 -85 1z"/>
<path d="M4655 4400 c-3 -5 1 -10 10 -10 9 0 13 5 10 10 -3 6 -8 10 -10 10 -2
0 -7 -4 -10 -10z"/>
<path d="M5700 4400 c0 -5 5 -10 11 -10 5 0 7 5 4 10 -3 6 -8 10 -11 10 -2 0
-4 -4 -4 -10z"/>
<path d="M3048 4393 c7 -3 16 -2 19 1 4 3 -2 6 -13 5 -11 0 -14 -3 -6 -6z"/>
<path d="M3128 4393 c7 -3 16 -2 19 1 4 3 -2 6 -13 5 -11 0 -14 -3 -6 -6z"/>
<path d="M3168 4393 c6 -2 18 -2 25 0 6 3 1 5 -13 5 -14 0 -19 -2 -12 -5z"/>
<path d="M3248 4393 c6 -2 18 -2 25 0 6 3 1 5 -13 5 -14 0 -19 -2 -12 -5z"/>
<path d="M3618 4393 c6 -2 18 -2 25 0 6 3 1 5 -13 5 -14 0 -19 -2 -12 -5z"/>
<path d="M3838 4393 c6 -2 18 -2 25 0 6 3 1 5 -13 5 -14 0 -19 -2 -12 -5z"/>
<path d="M4328 4393 c7 -3 16 -2 19 1 4 3 -2 6 -13 5 -11 0 -14 -3 -6 -6z"/>
<path d="M4753 4393 c15 -2 39 -2 55 0 15 2 2 4 -28 4 -30 0 -43 -2 -27 -4z"/>
<path d="M4878 4393 c6 -2 18 -2 25 0 6 3 1 5 -13 5 -14 0 -19 -2 -12 -5z"/>
<path d="M4928 4393 c6 -2 18 -2 25 0 6 3 1 5 -13 5 -14 0 -19 -2 -12 -5z"/>
<path d="M5738 4393 c7 -3 16 -2 19 1 4 3 -2 6 -13 5 -11 0 -14 -3 -6 -6z"/>
<path d="M2242 3993 l2 -188 6 185 c3 123 8 178 14 165 5 -11 8 -23 8 -27 -1
-5 3 -8 8 -8 6 0 10 9 10 20 0 11 4 20 9 20 14 0 31 -26 23 -36 -4 -4 1 -2 11
6 18 13 18 15 1 27 -16 12 -14 13 19 13 20 0 37 -5 37 -11 0 -6 -7 -8 -16 -5
-8 3 -12 2 -9 -4 10 -16 35 -12 35 6 0 8 5 12 10 9 6 -4 10 -60 10 -136 0
-102 -3 -128 -12 -122 -24 14 -36 11 -31 -8 3 -11 9 -21 13 -24 5 -3 6 5 2 17
-5 21 -4 22 11 9 23 -18 22 -68 0 -74 -14 -4 -12 -5 5 -6 l22 -1 0 180 0 180
-95 0 -95 0 2 -187z"/>
<path d="M2350 4121 c0 -5 5 -13 12 -17 7 -4 8 -3 4 4 -4 7 -1 12 8 12 8 0 17
-8 20 -17 4 -14 4 -14 3 2 -2 20 -47 36 -47 16z"/>
<path d="M2285 4090 c-3 -5 -1 -10 4 -10 6 0 11 5 11 10 0 6 -2 10 -4 10 -3 0
-8 -4 -11 -10z"/>
<path d="M2264 4039 c0 -24 1 -36 3 -26 3 9 8 15 13 12 18 -11 19 14 2 35 -18
22 -18 22 -18 -21z"/>
<path d="M2315 4064 c-12 -10 -14 -14 -5 -11 8 2 22 -2 32 -10 12 -11 18 -11
24 -2 4 7 3 10 -2 7 -5 -3 -14 0 -21 7 -10 11 -10 15 0 18 7 3 8 6 2 6 -5 0
-19 -7 -30 -15z"/>
<path d="M2385 4049 c-4 -6 -5 -12 -2 -15 2 -3 7 2 10 11 7 17 1 20 -8 4z"/>
<path d="M2380 4005 c-8 -11 -10 -16 -3 -11 14 8 8 -18 -10 -44 -6 -8 -1 -5
12 6 14 13 21 30 19 44 -3 22 -4 23 -18 5z"/>
<path d="M2331 3991 c-8 -5 -9 -11 -3 -15 5 -3 12 1 16 9 6 17 6 18 -13 6z"/>
<path d="M2343 3961 c-25 -21 -30 -33 -10 -25 10 4 43 45 35 44 -2 -1 -13 -9
-25 -19z"/>
<path d="M2260 3966 c0 -2 7 -7 16 -10 8 -3 12 -2 9 4 -6 10 -25 14 -25 6z"/>
<path d="M2260 3917 c0 -20 3 -37 8 -37 4 0 7 13 7 29 0 16 -3 33 -7 37 -5 4
-8 -9 -8 -29z"/>
<path d="M2297 3933 c-13 -13 -7 -19 23 -21 17 -1 30 2 30 8 0 5 -7 7 -16 3
-9 -3 -19 -1 -23 6 -4 6 -10 8 -14 4z"/>
<path d="M2296 3881 c-4 -5 3 -7 14 -4 23 6 26 13 6 13 -8 0 -17 -4 -20 -9z"/>
<path d="M2380 3850 c-9 -6 -10 -10 -3 -10 6 0 15 5 18 10 8 12 4 12 -15 0z"/>
<path d="M2338 3823 c7 -3 16 -2 19 1 4 3 -2 6 -13 5 -11 0 -14 -3 -6 -6z"/>
<path d="M2240 3093 c0 -496 1 -519 20 -550 13 -22 29 -34 52 -38 18 -3 1204
-4 2636 -3 l2604 3 29 33 29 32 0 199 0 199 -75 -26 c-41 -15 -71 -28 -67 -30
4 -1 34 7 66 18 58 20 58 20 53 0 -3 -11 -2 -18 1 -16 4 2 8 -21 9 -51 1 -46
-1 -54 -15 -48 -14 5 -14 4 -1 -12 11 -14 14 -46 14 -131 -1 -102 -3 -114 -23
-135 l-23 -22 -1019 -2 c-709 -2 -1020 0 -1020 8 0 5 5 7 12 3 7 -5 8 -3 3 6
-6 10 -11 10 -20 -3 -11 -15 -37 -17 -199 -17 -131 0 -186 3 -186 11 0 8 -4 8
-13 1 -18 -15 -239 -13 -249 2 -5 8 -8 7 -8 -1 0 -16 -76 -18 -85 -3 -4 7 -11
7 -18 2 -19 -15 -137 -15 -137 0 0 9 -3 10 -8 2 -8 -13 -155 -17 -147 -4 3 5
1 12 -5 15 -6 4 -9 1 -8 -7 2 -10 -27 -13 -142 -13 -115 0 -144 3 -142 13 1 8
-2 11 -8 7 -6 -3 -8 -11 -5 -16 4 -5 -93 -9 -244 -8 -205 1 -251 3 -255 15 -3
8 -11 14 -18 13 -10 0 -10 -2 0 -6 31 -12 5 -21 -68 -22 -65 -1 -80 2 -80 14
0 8 -5 15 -11 15 -6 0 -9 -7 -5 -15 4 -10 -1 -15 -14 -15 -11 0 -20 6 -20 13
0 9 -2 9 -8 0 -10 -15 -142 -16 -142 -1 0 7 -4 7 -12 1 -17 -13 -388 -15 -388
-2 0 5 -5 9 -11 9 -5 0 -7 -5 -4 -10 4 -7 -15 -10 -54 -8 -58 2 -76 10 -48 21
7 3 5 6 -5 6 -10 1 -18 -5 -18 -13 0 -12 -20 -14 -107 -13 -93 2 -106 4 -109
20 -3 20 12 23 19 5 4 -10 6 -10 6 0 1 18 21 14 21 -5 0 -9 3 -14 6 -10 3 3 3
14 0 25 -5 13 -14 18 -31 16 -32 -3 -43 15 -20 33 11 7 15 13 10 13 -5 0 -4 5
3 12 7 7 12 17 12 22 0 6 -12 -6 -26 -27 -20 -31 -23 -41 -14 -53 11 -13 7
-18 -12 -15 -5 0 -8 -4 -8 -10 0 -5 -4 -8 -9 -5 -5 3 -8 14 -6 24 1 9 0 12 -2
5 -3 -8 -12 -9 -26 -4 -12 5 -26 10 -32 11 -5 1 -9 5 -8 9 1 4 -5 8 -12 8 -12
0 -12 -3 -2 -16 10 -12 9 -13 -2 -7 -7 5 -16 5 -20 0 -14 -21 -63 -45 -81 -39
-37 12 -40 52 -40 571 l0 502 76 -3 c46 -2 79 -8 84 -15 5 -8 9 -5 13 9 5 20
1 21 -89 21 l-94 0 0 -517z m227 -558 c17 -18 25 -19 39 -5 7 7 11 6 11 -3 0
-11 -18 -14 -79 -13 -52 1 -78 5 -78 13 0 6 9 9 20 6 12 -3 20 -2 19 3 -1 5
-1 12 0 16 2 11 52 -2 68 -17z"/>
<path d="M2440 3601 c0 -6 4 -12 8 -15 5 -3 9 1 9 9 0 8 -4 15 -9 15 -4 0 -8
-4 -8 -9z"/>
<path d="M2470 3601 c0 -5 8 -8 18 -6 9 1 25 -5 35 -13 16 -14 17 -14 12 0 -5
12 1 18 22 21 15 2 2 5 -29 6 -32 0 -58 -3 -58 -8z"/>
<path d="M2650 3602 c0 -5 7 -9 15 -9 8 0 12 4 9 9 -3 4 -9 8 -15 8 -5 0 -9
-4 -9 -8z"/>
<path d="M2698 3603 c6 -2 18 -2 25 0 6 3 1 5 -13 5 -14 0 -19 -2 -12 -5z"/>
<path d="M2768 3603 c6 -2 18 -2 25 0 6 3 1 5 -13 5 -14 0 -19 -2 -12 -5z"/>
<path d="M2828 3603 c12 -2 32 -2 45 0 12 2 2 4 -23 4 -25 0 -35 -2 -22 -4z"/>
<path d="M2943 3603 c9 -2 25 -2 35 0 9 3 1 5 -18 5 -19 0 -27 -2 -17 -5z"/>
<path d="M3000 3606 c0 -2 9 -6 20 -9 11 -3 20 -1 20 4 0 5 -9 9 -20 9 -11 0
-20 -2 -20 -4z"/>
<path d="M3128 3603 c7 -3 16 -2 19 1 4 3 -2 6 -13 5 -11 0 -14 -3 -6 -6z"/>
<path d="M3193 3603 c9 -2 23 -2 30 0 6 3 -1 5 -18 5 -16 0 -22 -2 -12 -5z"/>
<path d="M3370 3600 c9 -4 31 -5 50 0 34 8 33 8 -15 9 -34 0 -45 -3 -35 -9z"/>
<path d="M3578 3603 c7 -3 16 -2 19 1 4 3 -2 6 -13 5 -11 0 -14 -3 -6 -6z"/>
<path d="M3730 3600 c-8 -5 -10 -10 -5 -10 6 0 17 5 25 10 8 5 11 10 5 10 -5
0 -17 -5 -25 -10z"/>
<path d="M3803 3603 c9 -2 23 -2 30 0 6 3 -1 5 -18 5 -16 0 -22 -2 -12 -5z"/>
<path d="M4135 3600 c4 -6 11 -8 16 -5 14 9 11 15 -7 15 -8 0 -12 -5 -9 -10z"/>
<path d="M4490 3599 c0 -5 5 -7 10 -4 6 3 10 8 10 11 0 2 -4 4 -10 4 -5 0 -10
-5 -10 -11z"/>
<path d="M4548 3603 c7 -3 16 -2 19 1 4 3 -2 6 -13 5 -11 0 -14 -3 -6 -6z"/>
<path d="M4810 3599 c0 -5 5 -7 10 -4 6 3 10 8 10 11 0 2 -4 4 -10 4 -5 0 -10
-5 -10 -11z"/>
<path d="M4853 3603 c9 -2 25 -2 35 0 9 3 1 5 -18 5 -19 0 -27 -2 -17 -5z"/>
<path d="M5058 3603 c7 -3 16 -2 19 1 4 3 -2 6 -13 5 -11 0 -14 -3 -6 -6z"/>
<path d="M5113 3603 c9 -2 23 -2 30 0 6 3 -1 5 -18 5 -16 0 -22 -2 -12 -5z"/>
<path d="M5176 3602 c-3 -5 8 -6 25 -4 16 2 29 6 29 8 0 8 -49 4 -54 -4z"/>
<path d="M5571 3606 c2 -2 22 -6 44 -9 27 -4 35 -3 25 3 -14 9 -79 15 -69 6z"/>
<path d="M5663 3604 c3 -4 29 -6 57 -5 38 0 49 -3 44 -12 -5 -9 -4 -9 7 1 19
18 47 15 52 -5 4 -17 5 -17 6 0 0 9 8 17 16 17 9 0 12 -6 9 -17 -5 -15 -4 -15
4 -3 6 8 29 15 52 17 40 2 41 2 67 -53 14 -30 30 -57 35 -60 5 -3 -6 24 -24
60 l-32 66 -150 0 c-82 0 -146 -3 -143 -6z"/>
<path d="M2264 3560 c2 -23 9 -36 20 -38 18 -4 22 13 5 23 -6 4 -14 17 -19 29
-7 17 -8 14 -6 -14z"/>
<path d="M2280 3575 c0 -16 16 -20 24 -6 3 5 -1 11 -9 15 -9 3 -15 0 -15 -9z"/>
<path d="M2330 3576 c0 -2 8 -10 18 -17 15 -13 16 -12 3 4 -13 16 -21 21 -21
13z"/>
<path d="M2380 3535 c-11 -13 -10 -14 4 -9 9 3 16 10 16 15 0 13 -6 11 -20 -6z"/>
<path d="M2309 3508 c-5 -18 -6 -38 -1 -34 7 8 12 36 6 36 -2 0 -4 -1 -5 -2z"/>
<path d="M2500 3500 c0 -5 5 -10 11 -10 5 0 7 5 4 10 -3 6 -8 10 -11 10 -2 0
-4 -4 -4 -10z"/>
<path d="M2263 3430 c-1 -55 2 -70 14 -70 9 0 11 5 6 13 -4 6 -8 36 -9 65 -1
78 -10 72 -11 -8z"/>
<path d="M2322 3467 c-8 -10 -6 -13 7 -13 11 0 17 6 14 13 -3 7 -6 13 -8 13
-1 0 -7 -6 -13 -13z"/>
<path d="M2318 3403 c7 -3 16 -2 19 1 4 3 -2 6 -13 5 -11 0 -14 -3 -6 -6z"/>
<path d="M6106 3347 c3 -10 9 -15 12 -12 3 3 0 11 -7 18 -10 9 -11 8 -5 -6z"/>
<path d="M2260 3326 c0 -2 7 -7 16 -10 8 -3 12 -2 9 4 -6 10 -25 14 -25 6z"/>
<path d="M2308 3323 c7 -3 16 -2 19 1 4 3 -2 6 -13 5 -11 0 -14 -3 -6 -6z"/>
<path d="M6145 3300 c10 -11 14 -20 10 -20 -4 0 11 -14 33 -30 23 -17 42 -34
42 -39 0 -5 8 -12 18 -15 9 -4 -12 22 -48 58 -60 62 -96 91 -55 46z"/>
<path d="M2336 3295 c4 -8 8 -15 10 -15 2 0 4 7 4 15 0 8 -4 15 -10 15 -5 0
-7 -7 -4 -15z"/>
<path d="M2300 3289 c0 -5 5 -7 10 -4 6 3 10 8 10 11 0 2 -4 4 -10 4 -5 0 -10
-5 -10 -11z"/>
<path d="M3885 3280 c-3 -6 1 -7 9 -4 18 7 21 14 7 14 -6 0 -13 -4 -16 -10z"/>
<path d="M2310 3250 c-9 -6 -10 -10 -3 -10 6 0 15 5 18 10 8 12 4 12 -15 0z"/>
<path d="M2267 3203 c-11 -11 -8 -21 9 -27 13 -5 14 -4 6 7 -7 8 -9 17 -5 20
3 4 4 7 1 7 -2 0 -8 -3 -11 -7z"/>
<path d="M4130 3199 c0 -5 5 -7 10 -4 6 3 10 8 10 11 0 2 -4 4 -10 4 -5 0 -10
-5 -10 -11z"/>
<path d="M4766 3193 c-6 -14 -5 -15 5 -6 7 7 10 15 7 18 -3 3 -9 -2 -12 -12z"/>
<path d="M3353 3185 c0 -8 4 -12 9 -9 5 3 6 10 3 15 -9 13 -12 11 -12 -6z"/>
<path d="M5667 3159 c7 -7 15 -10 18 -7 3 3 -2 9 -12 12 -14 6 -15 5 -6 -5z"/>
<path d="M6301 3150 c14 -14 45 -38 70 -54 24 -16 62 -41 84 -55 22 -15 55
-33 72 -40 18 -7 30 -17 27 -22 -3 -5 2 -6 11 -2 12 4 1 14 -42 37 -32 17 -91
54 -132 81 -40 28 -83 57 -94 65 -16 10 -15 8 4 -10z"/>
<path d="M5776 3148 c3 -5 10 -6 15 -3 13 9 11 12 -6 12 -8 0 -12 -4 -9 -9z"/>
<path d="M5185 3130 c-3 -5 -1 -10 4 -10 6 0 11 5 11 10 0 6 -2 10 -4 10 -3 0
-8 -4 -11 -10z"/>
<path d="M4840 3111 c0 -6 5 -13 12 -17 6 -4 8 -3 4 4 -3 5 0 13 6 15 8 3 6 6
-4 6 -10 1 -18 -3 -18 -8z"/>
<path d="M2263 3085 c0 -8 6 -16 14 -19 11 -4 11 -1 3 14 -13 24 -17 25 -17 5z"/>
<path d="M3064 3081 c20 -22 26 -25 26 -13 0 4 -10 13 -22 21 -23 14 -23 14
-4 -8z"/>
<path d="M5895 3089 c-4 -6 -5 -12 -2 -15 2 -3 7 2 10 11 7 17 1 20 -8 4z"/>
<path d="M5716 3082 c-3 -5 1 -9 9 -9 8 0 12 4 9 9 -3 4 -7 8 -9 8 -2 0 -6 -4
-9 -8z"/>
<path d="M4928 3073 c7 -3 16 -2 19 1 4 3 -2 6 -13 5 -11 0 -14 -3 -6 -6z"/>
<path d="M5520 3076 c0 -2 7 -7 16 -10 8 -3 12 -2 9 4 -6 10 -25 14 -25 6z"/>
<path d="M5075 3061 c-6 -11 13 -26 22 -17 4 3 1 6 -6 6 -7 0 -9 5 -6 10 3 6
4 10 1 10 -3 0 -7 -4 -11 -9z"/>
<path d="M2331 3024 c0 -11 3 -14 6 -6 3 7 2 16 -1 19 -3 4 -6 -2 -5 -13z"/>
<path d="M5858 3023 c7 -3 16 -2 19 1 4 3 -2 6 -13 5 -11 0 -14 -3 -6 -6z"/>
<path d="M5833 3005 c0 -8 4 -12 9 -9 5 3 6 10 3 15 -9 13 -12 11 -12 -6z"/>
<path d="M2260 2990 c0 -11 2 -20 4 -20 2 0 6 9 9 20 3 11 1 20 -4 20 -5 0 -9
-9 -9 -20z"/>
<path d="M2518 2996 c-15 -11 -16 -15 -3 -32 13 -18 14 -18 9 3 -4 15 -1 22
13 25 10 2 13 6 8 10 -6 3 -18 1 -27 -6z"/>
<path d="M2917 2979 c6 -23 9 -24 16 -5 3 8 0 17 -7 19 -10 4 -12 -1 -9 -14z"/>
<path d="M3140 2996 c0 -2 7 -7 16 -10 8 -3 12 -2 9 4 -6 10 -25 14 -25 6z"/>
<path d="M4195 2990 c3 -5 8 -10 11 -10 2 0 4 5 4 10 0 6 -5 10 -11 10 -5 0
-7 -4 -4 -10z"/>
<path d="M6430 2989 c0 -5 5 -7 10 -4 6 3 10 8 10 11 0 2 -4 4 -10 4 -5 0 -10
-5 -10 -11z"/>
<path d="M3014 2958 l-19 -23 23 19 c21 18 27 26 19 26 -2 0 -12 -10 -23 -22z"/>
<path d="M6618 2961 c18 -12 37 -21 43 -21 6 0 8 -4 5 -9 -3 -5 1 -12 10 -15
10 -4 13 -2 8 6 -5 7 -2 9 9 5 81 -31 236 -59 354 -64 78 -4 131 -10 130 -16
-1 -5 4 -11 11 -12 7 -2 8 -1 2 2 -18 9 0 23 33 25 18 1 -40 4 -128 8 -169 8
-292 30 -407 74 -100 38 -105 39 -70 17z"/>
<path d="M2310 2960 c-12 -7 -10 -9 7 -7 12 0 19 5 17 9 -6 10 -6 10 -24 -2z"/>
<path d="M3406 2953 c-6 -14 -5 -15 5 -6 7 7 10 15 7 18 -3 3 -9 -2 -12 -12z"/>
<path d="M5650 2961 c0 -6 4 -13 10 -16 6 -3 7 1 4 9 -7 18 -14 21 -14 7z"/>
<path d="M6395 2960 c-3 -6 1 -7 9 -4 18 7 21 14 7 14 -6 0 -13 -4 -16 -10z"/>
<path d="M6516 2943 c-6 -14 -5 -15 5 -6 7 7 10 15 7 18 -3 3 -9 -2 -12 -12z"/>
<path d="M2619 2933 c-13 -16 -12 -17 4 -4 16 13 21 21 13 21 -2 0 -10 -8 -17
-17z"/>
<path d="M4540 2941 c0 -6 5 -13 12 -17 6 -4 8 -3 4 4 -3 5 0 13 6 15 8 3 6 6
-4 6 -10 1 -18 -3 -18 -8z"/>
<path d="M5735 2940 c3 -5 8 -10 11 -10 2 0 4 5 4 10 0 6 -5 10 -11 10 -5 0
-7 -4 -4 -10z"/>
<path d="M2307 2933 c-10 -9 -9 -23 1 -23 5 0 9 7 9 15 0 17 -1 18 -10 8z"/>
<path d="M5636 2931 c-3 -5 1 -11 9 -14 9 -4 12 -1 8 9 -6 16 -10 17 -17 5z"/>
<path d="M2535 2920 c-3 -6 1 -7 9 -4 18 7 21 14 7 14 -6 0 -13 -4 -16 -10z"/>
<path d="M4387 2917 c-3 -8 1 -14 9 -14 16 0 19 13 5 21 -5 3 -11 0 -14 -7z"/>
<path d="M4915 2920 c3 -5 8 -10 11 -10 2 0 4 5 4 10 0 6 -5 10 -11 10 -5 0
-7 -4 -4 -10z"/>
<path d="M5946 2915 c-3 -8 -1 -15 4 -15 6 0 10 7 10 15 0 8 -2 15 -4 15 -2 0
-6 -7 -10 -15z"/>
<path d="M4141 2897 c-13 -21 -12 -21 5 -5 10 10 16 20 13 22 -3 3 -11 -5 -18
-17z"/>
<path d="M5180 2900 c-9 -6 -10 -10 -3 -10 6 0 15 5 18 10 8 12 4 12 -15 0z"/>
<path d="M7428 2903 c7 -3 16 -2 19 1 4 3 -2 6 -13 5 -11 0 -14 -3 -6 -6z"/>
<path d="M2270 2890 c8 -5 20 -10 25 -10 6 0 3 5 -5 10 -8 5 -19 10 -25 10 -5
0 -3 -5 5 -10z"/>
<path d="M4945 2890 c3 -5 8 -10 11 -10 2 0 4 5 4 10 0 6 -5 10 -11 10 -5 0
-7 -4 -4 -10z"/>
<path d="M5752 2880 c0 -14 2 -19 5 -12 2 6 2 18 0 25 -3 6 -5 1 -5 -13z"/>
<path d="M6246 2892 c-2 -4 -1 -14 4 -22 7 -11 9 -9 7 8 -1 24 -3 26 -11 14z"/>
<path d="M7388 2893 c7 -3 16 -2 19 1 4 3 -2 6 -13 5 -11 0 -14 -3 -6 -6z"/>
<path d="M5986 2876 c3 -8 13 -17 22 -21 13 -5 13 -2 -3 15 -21 24 -26 25 -19
6z"/>
<path d="M7297 2883 c-20 -2 -35 -8 -32 -12 4 -8 93 4 103 14 5 5 -3 5 -71 -2z"/>
<path d="M2361 2864 c0 -11 3 -14 6 -6 3 7 2 16 -1 19 -3 4 -6 -2 -5 -13z"/>
<path d="M2947 2865 c-4 -8 -3 -16 1 -19 4 -3 9 4 9 15 2 23 -3 25 -10 4z"/>
<path d="M6296 2868 c3 -5 10 -6 15 -3 13 9 11 12 -6 12 -8 0 -12 -4 -9 -9z"/>
<path d="M2276 2855 c6 -14 4 -16 -7 -10 -11 6 -11 5 -2 -5 9 -10 17 -8 39 9
15 11 22 21 16 21 -6 0 -14 -5 -17 -10 -5 -8 -11 -7 -21 1 -12 10 -13 9 -8 -6z"/>
<path d="M6755 2849 c-4 -6 -5 -12 -2 -15 2 -3 7 2 10 11 7 17 1 20 -8 4z"/>
<path d="M2340 2841 c0 -5 7 -12 16 -15 14 -5 15 -4 4 9 -14 17 -20 19 -20 6z"/>
<path d="M4115 2840 c3 -5 8 -10 11 -10 2 0 4 5 4 10 0 6 -5 10 -11 10 -5 0
-7 -4 -4 -10z"/>
<path d="M2490 2830 c0 -5 5 -10 11 -10 5 0 7 5 4 10 -3 6 -8 10 -11 10 -2 0
-4 -4 -4 -10z"/>
<path d="M6466 2827 c3 -10 9 -15 12 -12 3 3 0 11 -7 18 -10 9 -11 8 -5 -6z"/>
<path d="M7136 2823 c-6 -14 -5 -15 5 -6 7 7 10 15 7 18 -3 3 -9 -2 -12 -12z"/>
<path d="M2306 2821 c-3 -5 1 -11 9 -14 9 -4 12 -1 8 9 -6 16 -10 17 -17 5z"/>
<path d="M3606 2813 c-6 -14 -5 -15 5 -6 7 7 10 15 7 18 -3 3 -9 -2 -12 -12z"/>
<path d="M4663 2815 c0 -8 4 -12 9 -9 5 3 6 10 3 15 -9 13 -12 11 -12 -6z"/>
<path d="M2260 2806 c0 -8 4 -17 9 -20 5 -4 7 3 4 14 -6 23 -13 26 -13 6z"/>
<path d="M2515 2810 c-8 -13 9 -20 24 -11 10 6 9 10 -3 14 -8 3 -18 2 -21 -3z"/>
<path d="M4684 2798 l-19 -23 23 19 c12 11 22 21 22 23 0 8 -8 2 -26 -19z"/>
<path d="M2826 2801 c-3 -4 6 -6 19 -3 14 2 25 6 25 8 0 8 -39 4 -44 -5z"/>
<path d="M3260 2796 c0 -2 7 -6 15 -10 8 -3 15 -1 15 4 0 6 -7 10 -15 10 -8 0
-15 -2 -15 -4z"/>
<path d="M2400 2786 c0 -2 8 -10 18 -17 15 -13 16 -12 3 4 -13 16 -21 21 -21
13z"/>
<path d="M2306 2767 c3 -10 9 -15 12 -12 3 3 0 11 -7 18 -10 9 -11 8 -5 -6z"/>
<path d="M2928 2773 c7 -3 16 -2 19 1 4 3 -2 6 -13 5 -11 0 -14 -3 -6 -6z"/>
<path d="M4980 2760 c6 -11 13 -20 16 -20 2 0 0 9 -6 20 -6 11 -13 20 -16 20
-2 0 0 -9 6 -20z"/>
<path d="M5890 2776 c0 -2 7 -9 15 -16 13 -11 14 -10 9 4 -5 14 -24 23 -24 12z"/>
<path d="M2260 2760 c0 -5 5 -10 11 -10 5 0 7 5 4 10 -3 6 -8 10 -11 10 -2 0
-4 -4 -4 -10z"/>
<path d="M2600 2759 c0 -5 5 -7 10 -4 6 3 10 8 10 11 0 2 -4 4 -10 4 -5 0 -10
-5 -10 -11z"/>
<path d="M3351 2754 c0 -11 3 -14 6 -6 3 7 2 16 -1 19 -3 4 -6 -2 -5 -13z"/>
<path d="M4940 2761 c0 -5 7 -12 16 -15 14 -5 15 -4 4 9 -14 17 -20 19 -20 6z"/>
<path d="M3546 2751 c-4 -5 -2 -12 3 -15 5 -4 12 -2 15 3 4 5 2 12 -3 15 -5 4
-12 2 -15 -3z"/>
<path d="M4386 2745 c-3 -8 -1 -15 4 -15 6 0 10 7 10 15 0 8 -2 15 -4 15 -2 0
-6 -7 -10 -15z"/>
<path d="M3026 2734 c-5 -14 -4 -15 9 -4 17 14 19 20 6 20 -5 0 -12 -7 -15
-16z"/>
<path d="M3429 2733 c-13 -16 -12 -17 4 -4 9 7 17 15 17 17 0 8 -8 3 -21 -13z"/>
<path d="M2266 2731 c-4 -5 1 -8 9 -7 21 3 31 16 12 16 -9 0 -18 -4 -21 -9z"/>
<path d="M2520 2730 c-13 -8 -12 -10 3 -10 9 0 17 5 17 10 0 12 -1 12 -20 0z"/>
<path d="M2553 2725 c0 -8 4 -12 9 -9 5 3 6 10 3 15 -9 13 -12 11 -12 -6z"/>
<path d="M4597 2727 c-3 -7 3 -13 14 -13 13 0 15 3 7 13 -6 7 -12 13 -13 13
-2 0 -5 -6 -8 -13z"/>
<path d="M2730 2720 c0 -5 5 -10 11 -10 5 0 7 5 4 10 -3 6 -8 10 -11 10 -2 0
-4 -4 -4 -10z"/>
<path d="M3140 2719 c0 -5 5 -7 10 -4 6 3 10 8 10 11 0 2 -4 4 -10 4 -5 0 -10
-5 -10 -11z"/>
<path d="M4918 2723 c7 -3 16 -2 19 1 4 3 -2 6 -13 5 -11 0 -14 -3 -6 -6z"/>
<path d="M5203 2719 c9 -6 14 -15 11 -21 -4 -7 -2 -8 5 -4 14 9 -3 36 -23 36
-6 0 -3 -5 7 -11z"/>
<path d="M3860 2701 c0 -6 4 -13 10 -16 6 -3 7 1 4 9 -7 18 -14 21 -14 7z"/>
<path d="M5331 2684 c0 -11 3 -14 6 -6 3 7 2 16 -1 19 -3 4 -6 -2 -5 -13z"/>
<path d="M7539 2687 c6 -8 7 -18 3 -22 -4 -5 -2 -5 5 -1 14 8 6 36 -9 36 -7 0
-6 -5 1 -13z"/>
<path d="M2280 2670 c0 -12 -4 -18 -10 -15 -17 10 -11 -4 10 -25 11 -11 22
-15 25 -10 4 6 1 10 -6 10 -7 0 -9 10 -7 25 3 14 1 28 -3 31 -5 3 -9 -4 -9
-16z"/>
<path d="M3588 2679 c7 -9 10 -25 6 -35 -5 -18 -5 -18 6 0 10 15 9 21 -6 35
-16 14 -17 14 -6 0z"/>
<path d="M4126 2677 c3 -10 9 -15 12 -12 3 3 0 11 -7 18 -10 9 -11 8 -5 -6z"/>
<path d="M4616 2673 c-6 -14 -5 -15 5 -6 7 7 10 15 7 18 -3 3 -9 -2 -12 -12z"/>
<path d="M2513 2665 c0 -8 4 -12 9 -9 5 3 6 10 3 15 -9 13 -12 11 -12 -6z"/>
<path d="M5175 2660 c10 -11 20 -20 23 -20 3 0 -3 9 -13 20 -10 11 -20 20 -23
20 -3 0 3 -9 13 -20z"/>
<path d="M5245 2660 c21 -24 26 -25 19 -6 -3 8 -13 17 -22 21 -13 5 -13 2 3
-15z"/>
<path d="M5571 2664 c0 -11 3 -14 6 -6 3 7 2 16 -1 19 -3 4 -6 -2 -5 -13z"/>
<path d="M6270 2676 c0 -2 7 -7 16 -10 8 -3 12 -2 9 4 -6 10 -25 14 -25 6z"/>
<path d="M5715 2660 c-3 -5 -2 -10 4 -10 5 0 13 5 16 10 3 6 2 10 -4 10 -5 0
-13 -4 -16 -10z"/>
<path d="M2836 2647 c3 -10 9 -15 12 -12 3 3 0 11 -7 18 -10 9 -11 8 -5 -6z"/>
<path d="M3202 2638 c7 -15 15 -23 17 -17 2 6 -4 18 -13 27 -15 15 -15 15 -4
-10z"/>
<path d="M3628 2648 c5 -5 16 -8 23 -6 8 3 3 7 -10 11 -17 4 -21 3 -13 -5z"/>
<path d="M4585 2650 c3 -5 8 -10 11 -10 2 0 4 5 4 10 0 6 -5 10 -11 10 -5 0
-7 -4 -4 -10z"/>
<path d="M4737 2653 c-4 -3 -7 -13 -7 -22 1 -13 3 -13 11 2 11 19 8 33 -4 20z"/>
<path d="M4922 2646 c7 -8 15 -12 17 -11 5 6 -10 25 -20 25 -5 0 -4 -6 3 -14z"/>
<path d="M5060 2648 c0 -4 4 -8 10 -8 5 0 7 -8 4 -17 -5 -14 -4 -15 4 -4 5 7
14 11 19 8 5 -3 10 0 10 7 0 8 -7 12 -15 8 -9 -3 -13 -1 -9 5 3 5 0 10 -8 10
-8 0 -15 -4 -15 -9z"/>
<path d="M5820 2650 c-13 -8 -12 -10 3 -10 9 0 17 5 17 10 0 12 -1 12 -20 0z"/>
<path d="M2345 2640 c-3 -5 -1 -10 4 -10 6 0 11 5 11 10 0 6 -2 10 -4 10 -3 0
-8 -4 -11 -10z"/>
<path d="M2443 2635 c0 -11 4 -12 14 -4 7 6 13 13 13 15 0 2 -6 4 -13 4 -8 0
-14 -7 -14 -15z"/>
<path d="M2918 2638 c5 -5 16 -8 23 -6 8 3 3 7 -10 11 -17 4 -21 3 -13 -5z"/>
<path d="M3135 2640 c-3 -5 -1 -10 4 -10 6 0 11 5 11 10 0 6 -2 10 -4 10 -3 0
-8 -4 -11 -10z"/>
<path d="M3333 2633 c0 -9 4 -10 14 -2 7 6 13 12 13 14 0 1 -6 2 -13 2 -8 0
-14 -6 -14 -14z"/>
<path d="M4530 2640 c0 -5 5 -10 11 -10 5 0 7 5 4 10 -3 6 -8 10 -11 10 -2 0
-4 -4 -4 -10z"/>
<path d="M5406 2633 c-6 -14 -5 -15 5 -6 7 7 10 15 7 18 -3 3 -9 -2 -12 -12z"/>
<path d="M6278 2638 c5 -5 16 -8 23 -6 8 3 3 7 -10 11 -17 4 -21 3 -13 -5z"/>
<path d="M2385 2633 c11 -3 24 -10 28 -17 6 -7 7 -6 4 4 -2 8 -14 16 -28 17
-19 1 -20 1 -4 -4z"/>
<path d="M6130 2636 c0 -2 8 -10 18 -17 15 -13 16 -12 3 4 -13 16 -21 21 -21
13z"/>
<path d="M2723 2615 c0 -8 4 -12 9 -9 5 3 6 10 3 15 -9 13 -12 11 -12 -6z"/>
<path d="M3060 2623 c0 -5 6 -18 14 -29 14 -18 16 -18 33 -1 11 11 13 17 5 17
-7 0 -10 5 -7 10 3 6 1 10 -5 10 -7 0 -9 -9 -5 -22 l6 -23 -20 24 c-12 13 -21
19 -21 14z"/>
<path d="M3906 2613 c-6 -14 -5 -15 5 -6 7 7 10 15 7 18 -3 3 -9 -2 -12 -12z"/>
<path d="M2266 2612 c-6 -9 3 -52 11 -52 3 0 18 14 33 30 26 28 28 44 2 18 -8
-8 -15 -8 -26 1 -8 7 -17 8 -20 3z"/>
<path d="M3985 2609 c-4 -6 -5 -12 -2 -15 2 -3 7 2 10 11 7 17 1 20 -8 4z"/>
<path d="M4682 2601 c7 -9 14 -18 15 -20 2 -2 3 5 3 16 0 11 -7 20 -15 20 -12
0 -12 -3 -3 -16z"/>
<path d="M2450 2595 c0 -8 2 -15 4 -15 2 0 6 7 10 15 3 8 1 15 -4 15 -6 0 -10
-7 -10 -15z"/>
<path d="M2860 2600 c0 -5 5 -10 11 -10 5 0 8 -4 5 -8 -3 -5 1 -9 9 -9 21 0
19 10 -5 25 -12 7 -20 8 -20 2z"/>
<path d="M3560 2600 c0 -5 5 -10 11 -10 5 0 7 5 4 10 -3 6 -8 10 -11 10 -2 0
-4 -4 -4 -10z"/>
<path d="M4490 2600 c0 -5 5 -10 11 -10 5 0 7 5 4 10 -3 6 -8 10 -11 10 -2 0
-4 -4 -4 -10z"/>
<path d="M6025 2600 c-4 -6 -10 -8 -15 -5 -4 3 -10 -1 -13 -8 -3 -8 3 -14 15
-14 11 -1 18 1 14 4 -3 3 -1 12 5 20 6 7 9 13 6 13 -3 0 -9 -5 -12 -10z"/>
<path d="M2600 2590 c0 -5 5 -10 11 -10 5 0 7 5 4 10 -3 6 -8 10 -11 10 -2 0
-4 -4 -4 -10z"/>
<path d="M3644 2585 c1 -8 6 -18 11 -22 4 -4 5 -3 2 4 -4 6 -2 13 5 15 8 3 6
6 -4 10 -10 4 -15 2 -14 -7z"/>
<path d="M3696 2583 c-4 -9 -4 -18 -1 -21 3 -3 5 1 5 8 0 9 5 7 14 -6 8 -10
17 -16 21 -12 4 3 -2 15 -13 26 -18 18 -21 18 -26 5z"/>
<path d="M3936 2588 c3 -5 10 -6 15 -3 13 9 11 12 -6 12 -8 0 -12 -4 -9 -9z"/>
<path d="M4395 2589 c-4 -6 -5 -12 -2 -15 2 -3 7 2 10 11 7 17 1 20 -8 4z"/>
<path d="M4548 2576 c-16 -22 -16 -23 5 -22 12 0 21 -4 20 -11 -2 -7 4 -10 13
-6 12 4 11 8 -6 20 -17 12 -19 18 -9 29 6 8 8 14 3 14 -5 0 -17 -11 -26 -24z"/>
<path d="M4889 2588 c7 -10 17 -18 22 -18 5 0 9 8 8 18 0 11 -2 12 -6 4 -4
-10 -8 -10 -21 0 -15 12 -16 11 -3 -4z"/>
<path d="M5060 2580 c-7 -14 -7 -20 0 -20 5 0 10 7 10 16 0 10 5 14 16 10 8
-3 12 -2 9 4 -10 16 -23 12 -35 -10z"/>
<path d="M5136 2587 c3 -10 9 -15 12 -12 3 3 0 11 -7 18 -10 9 -11 8 -5 -6z"/>
<path d="M5700 2590 c-9 -6 -10 -10 -3 -10 6 0 15 5 18 10 8 12 4 12 -15 0z"/>
<path d="M2914 2579 c-3 -6 -1 -16 4 -21 8 -8 11 -5 9 11 -1 24 -3 25 -13 10z"/>
<path d="M3125 2580 c3 -5 8 -10 11 -10 2 0 4 5 4 10 0 6 -5 10 -11 10 -5 0
-7 -4 -4 -10z"/>
<path d="M3179 2573 c-13 -16 -12 -17 4 -4 9 7 17 15 17 17 0 8 -8 3 -21 -13z"/>
<path d="M4585 2580 c-3 -5 -1 -10 4 -10 6 0 11 5 11 10 0 6 -2 10 -4 10 -3 0
-8 -4 -11 -10z"/>
<path d="M5830 2580 c-8 -5 -10 -10 -5 -10 6 0 17 5 25 10 8 5 11 10 5 10 -5
0 -17 -5 -25 -10z"/>
<path d="M3425 2571 c-3 -5 -2 -12 3 -15 5 -3 9 1 9 9 0 17 -3 19 -12 6z"/>
<path d="M4937 2560 c8 -30 21 -34 15 -5 -2 14 -8 25 -12 25 -5 0 -6 -9 -3
-20z"/>
<path d="M6040 2572 c0 -6 9 -12 20 -15 11 -3 20 -3 20 -1 0 2 -9 8 -20 14
-11 6 -20 7 -20 2z"/>
<path d="M7140 2576 c0 -2 7 -7 16 -10 8 -3 12 -2 9 4 -6 10 -25 14 -25 6z"/>
<path d="M2596 2554 c-8 -22 -4 -25 11 -9 7 8 9 16 4 19 -5 3 -12 -1 -15 -10z"/>
<path d="M2695 2559 c-4 -6 -4 -13 -1 -16 3 -4 6 -1 6 6 0 7 5 9 12 5 7 -4 8
-3 4 4 -9 15 -13 15 -21 1z"/>
<path d="M2760 2560 c0 -5 7 -7 15 -4 10 4 13 2 10 -8 -4 -9 0 -15 9 -15 11 0
13 5 5 19 -10 19 -39 25 -39 8z"/>
<path d="M3004 2547 l-19 -22 24 20 c21 18 24 18 18 3 -4 -10 -2 -18 3 -18 12
0 13 27 1 34 -4 3 -17 -4 -27 -17z"/>
<path d="M3080 2563 c8 -3 8 -9 0 -18 -14 -17 -1 -25 25 -14 17 6 17 8 3 8
-10 1 -17 6 -15 12 1 6 -4 13 -11 15 -7 1 -8 0 -2 -3z"/>
<path d="M3271 2554 c0 -11 3 -14 6 -6 3 7 2 16 -1 19 -3 4 -6 -2 -5 -13z"/>
<path d="M3293 2545 c0 -13 3 -22 8 -20 9 6 8 45 -2 45 -4 0 -6 -11 -6 -25z"/>
<path d="M3556 2561 c-3 -4 6 -8 20 -9 13 -1 24 0 24 2 0 7 -40 14 -44 7z"/>
<path d="M4235 2560 c-4 -6 -12 -7 -18 -4 -9 5 -9 4 0 -6 9 -10 15 -10 28 4 9
9 12 16 6 16 -5 0 -13 -5 -16 -10z"/>
<path d="M4280 2566 c0 -2 7 -7 16 -10 8 -3 12 -2 9 4 -6 10 -25 14 -25 6z"/>
<path d="M4380 2550 c13 -24 17 -25 17 -5 0 8 -6 16 -14 19 -11 4 -11 1 -3
-14z"/>
<path d="M4809 2559 c5 -6 7 -19 4 -28 -5 -13 -3 -14 8 -3 11 10 10 15 -4 27
-9 8 -13 10 -8 4z"/>
<path d="M4850 2553 c0 -7 4 -13 9 -13 5 0 11 6 14 13 3 8 -1 14 -9 14 -8 0
-14 -6 -14 -14z"/>
<path d="M5011 2548 c13 -29 30 -29 28 0 0 11 -2 13 -6 4 -4 -10 -9 -9 -19 5
-13 16 -13 15 -3 -9z"/>
<path d="M5080 2561 c0 -6 4 -13 10 -16 6 -3 7 1 4 9 -7 18 -14 21 -14 7z"/>
<path d="M5106 2558 c3 -5 10 -6 15 -3 13 9 11 12 -6 12 -8 0 -12 -4 -9 -9z"/>
<path d="M6128 2563 c7 -3 16 -2 19 1 4 3 -2 6 -13 5 -11 0 -14 -3 -6 -6z"/>
<path d="M7326 2556 c7 -19 20 -21 30 -3 4 6 4 9 -1 5 -4 -4 -14 -3 -22 4 -11
8 -12 7 -7 -6z"/>
<path d="M2940 2539 c0 -11 5 -17 10 -14 6 3 10 13 10 21 0 8 -4 14 -10 14 -5
0 -10 -9 -10 -21z"/>
<path d="M3245 2550 c3 -5 8 -10 11 -10 2 0 4 5 4 10 0 6 -5 10 -11 10 -5 0
-7 -4 -4 -10z"/>
<path d="M3336 2545 c4 -8 9 -15 13 -15 4 0 8 7 8 15 0 8 -6 15 -13 15 -8 0
-11 -6 -8 -15z"/>
<path d="M3525 2544 c14 -14 28 -18 50 -15 l30 5 -35 6 c-20 3 -42 10 -50 15
-8 4 -6 -1 5 -11z"/>
<path d="M3751 2544 c0 -11 3 -14 6 -6 3 7 2 16 -1 19 -3 4 -6 -2 -5 -13z"/>
<path d="M4610 2551 c0 -10 19 -25 25 -20 1 2 -3 10 -11 17 -8 7 -14 8 -14 3z"/>
<path d="M5418 2553 c7 -3 16 -2 19 1 4 3 -2 6 -13 5 -11 0 -14 -3 -6 -6z"/>
<path d="M5482 2544 c-7 -8 -8 -14 -3 -14 10 0 25 19 20 25 -2 1 -10 -3 -17
-11z"/>
<path d="M5731 2553 c-1 -17 16 -25 25 -12 4 7 3 9 -4 5 -5 -3 -13 0 -15 6 -4
9 -6 10 -6 1z"/>
<path d="M5830 2547 c0 -10 8 -17 18 -17 9 0 13 4 7 8 -5 4 -13 11 -17 16 -5
5 -8 2 -8 -7z"/>
<path d="M6296 2551 c-17 -6 -17 -8 -4 -14 10 -3 19 0 22 9 3 8 4 14 3 13 -1
0 -11 -4 -21 -8z"/>
<path d="M7413 2550 c3 -16 21 -14 25 2 3 10 2 10 -6 -1 -7 -9 -11 -10 -15 -2
-4 7 -5 8 -4 1z"/>
<path d="M7498 2553 c-10 -2 -18 -9 -18 -14 0 -6 8 -5 20 1 11 6 20 13 20 15
0 3 -1 4 -2 4 -2 -1 -11 -3 -20 -6z"/>
<path d="M2843 2543 c-15 -5 -17 -23 -4 -23 5 0 11 7 15 15 3 8 4 15 3 14 -1
0 -8 -3 -14 -6z"/>
<path d="M4505 2540 c-3 -5 1 -10 10 -10 9 0 13 5 10 10 -3 6 -8 10 -10 10 -2
0 -7 -4 -10 -10z"/>
<path d="M4910 2540 c-9 -6 -10 -10 -3 -10 6 0 15 5 18 10 8 12 4 12 -15 0z"/>
<path d="M5577 2543 c-4 -3 -7 -11 -7 -17 0 -6 5 -5 12 2 6 6 9 14 7 17 -3 3
-9 2 -12 -2z"/>
<path d="M6203 2543 c-7 -2 -13 -9 -13 -15 0 -7 5 -7 13 1 8 6 18 7 22 3 5 -4
5 -1 1 6 -4 6 -8 12 -9 11 -1 0 -8 -3 -14 -6z"/>
<path d="M3688 2533 c7 -3 16 -2 19 1 4 3 -2 6 -13 5 -11 0 -14 -3 -6 -6z"/>
<path d="M5145 2530 c-3 -6 1 -7 9 -4 18 7 21 14 7 14 -6 0 -13 -4 -16 -10z"/>
<path d="M5798 2533 c7 -3 16 -2 19 1 4 3 -2 6 -13 5 -11 0 -14 -3 -6 -6z"/>
</g>
</svg>
