<?xml version="1.0" standalone="no"?>
<!DOCTYPE svg PUBLIC "-//W3C//DTD SVG 20010904//EN"
 "http://www.w3.org/TR/2001/REC-SVG-20010904/DTD/svg10.dtd">
<svg version="1.0" xmlns="http://www.w3.org/2000/svg"
 width="1024.000000pt" height="1024.000000pt" viewBox="0 0 1024.000000 1024.000000"
 preserveAspectRatio="xMidYMid meet">

<g transform="translate(0.000000,1024.000000) scale(0.100000,-0.100000)"
fill="#000000" stroke="none">
<path d="M2671 8914 c-70 -59 -82 -254 -15 -254 17 0 17 0 -1 -75 -22 -89 -20
-186 5 -217 19 -25 19 -26 -31 -444 -27 -230 -61 -520 -75 -644 -14 -124 -32
-256 -39 -295 -20 -95 -70 -194 -152 -295 -120 -148 -167 -227 -206 -344 -19
-56 -21 -92 -24 -453 l-4 -393 920 0 921 0 0 360 c0 407 -6 465 -66 587 -19
40 -78 128 -130 195 -105 135 -145 204 -168 294 -13 50 -62 441 -155 1239
l-18 160 21 23 c32 36 28 185 -9 275 -5 13 -2 17 14 17 30 0 51 48 51 118 0
68 -23 112 -79 149 -34 23 -37 23 -382 23 l-347 0 -31 -26z"/>
<path d="M4658 8925 c-79 -44 -105 -265 -31 -265 20 0 24 -3 18 -17 -16 -37
-35 -140 -35 -191 0 -49 12 -89 30 -102 4 -3 -10 -160 -31 -350 -21 -190 -55
-489 -74 -665 -20 -176 -43 -347 -51 -380 -24 -98 -66 -173 -162 -295 -51 -63
-110 -151 -132 -195 -68 -136 -70 -152 -70 -582 l0 -383 906 0 905 0 -4 378
c-3 322 -6 387 -21 442 -28 101 -107 254 -200 383 -90 126 -118 186 -136 289
-10 63 -76 603 -129 1075 -16 139 -32 257 -36 263 -3 5 -1 10 5 10 6 0 18 17
27 38 18 44 13 162 -10 230 -14 39 -13 42 3 42 56 0 79 121 38 199 -46 89 -32
86 -431 88 -293 2 -356 0 -379 -12z"/>
<path d="M6585 8931 c-50 -21 -85 -94 -85 -176 0 -65 13 -95 40 -95 24 0 24
-1 4 -65 -8 -27 -16 -84 -17 -127 -2 -65 1 -81 20 -106 18 -24 20 -36 13 -63
-4 -19 -11 -61 -14 -94 -12 -127 -87 -820 -111 -1020 -35 -298 -55 -356 -181
-521 -84 -110 -128 -192 -160 -299 l-28 -90 -4 -387 -4 -388 906 0 906 0 0
368 c0 335 -2 376 -20 448 -27 109 -85 221 -175 339 -170 223 -168 216 -225
695 -11 91 -38 316 -60 500 -63 528 -60 488 -44 518 23 44 18 173 -10 260 -6
18 -4 22 13 22 34 0 56 46 55 115 -1 71 -20 114 -66 147 -33 23 -34 23 -383
25 -192 1 -359 -2 -370 -6z"/>
<path d="M1856 5309 c-20 -17 -40 -47 -46 -67 -6 -25 -10 -672 -10 -1922 0
-1811 1 -1887 19 -1925 21 -46 54 -79 94 -94 20 -8 935 -11 3053 -11 3294 0
3059 -4 3116 56 44 48 48 72 48 311 l0 225 -52 -48 c-173 -155 -534 -326 -806
-381 -122 -25 -453 -24 -607 1 -339 55 -706 264 -941 535 -364 420 -507 944
-395 1448 56 249 125 418 246 598 229 342 570 593 937 690 285 75 541 82 830
24 282 -58 562 -212 805 -442 l73 -70 0 492 c0 539 1 534 -59 584 l-33 27
-3118 0 -3119 0 -35 -31z"/>
<path d="M6855 4583 c-211 -26 -353 -64 -509 -138 -210 -98 -448 -294 -576
-472 -341 -480 -362 -1140 -50 -1648 210 -343 552 -582 948 -662 68 -14 135
-18 302 -18 200 1 223 3 335 29 274 64 505 194 706 397 213 215 338 443 401
733 30 139 33 476 4 606 -107 489 -418 866 -874 1062 -201 86 -500 134 -687
111z m190 -554 c54 -15 101 -52 125 -99 19 -36 20 -59 20 -329 l0 -290 284 -3
284 -3 44 -30 c62 -43 90 -103 86 -181 -4 -71 -32 -116 -95 -156 -37 -22 -44
-23 -320 -26 l-283 -3 0 -272 c0 -164 -4 -288 -11 -312 -44 -162 -310 -184
-380 -32 -17 38 -19 69 -19 330 l0 287 -279 0 c-294 0 -320 3 -380 48 -106 79
-87 263 34 326 37 20 58 21 333 24 l292 3 0 307 c0 356 0 354 93 397 56 27
109 31 172 14z"/>
</g>
</svg>
