<?xml version="1.0" standalone="no"?>
<!DOCTYPE svg PUBLIC "-//W3C//DTD SVG 20010904//EN" "http://www.w3.org/TR/2001/REC-SVG-20010904/DTD/svg10.dtd">
<svg xmlns="http://www.w3.org/2000/svg" version="1.0" width="1024.000000pt" height="1024.000000pt" viewBox="0 0 1024.000000 1024.000000" preserveAspectRatio="xMidYMid meet">
<metadata>
Created by potrace 1.16, written by Peter Selinger 2001-2019
<meta name="Producer" content="Online-Convert"/></metadata>
<g transform="translate(0.000000,1024.000000) scale(0.100000,-0.100000)" fill="#000000" stroke="none">
<path d="M3435 8304 c-177 -31 -363 -105 -512 -205 -98 -65 -285 -252 -345 -344 -104 -158 -166 -317 -194 -493 -20 -127 -14 -385 11 -495 84 -375 322 -676 670 -847 201 -99 391 -137 634 -127 562 23 1014 389 1168 943 26 93 27 111 27 309 1 187 -2 219 -22 292 -74 270 -175 454 -343 622 -132 131 -310 241 -489 301 -172 58 -422 76 -605 44z m423 -399 c154 -39 269 -105 391 -221 172 -164 263 -379 263 -624 0 -186 -41 -337 -129 -479 -113 -182 -276 -303 -503 -376 -209 -66 -476 -33 -688 87 -100 56 -262 215 -320 313 -194 331 -133 776 147 1068 204 214 546 309 839 232z"/>
<path d="M5935 8146 c-135 -26 -238 -59 -333 -108 -311 -158 -543 -464 -607 -801 -19 -101 -19 -316 -1 -423 59 -336 261 -614 556 -764 l45 -23 -66 -18 c-89 -25 -278 -106 -368 -158 -40 -24 -120 -78 -177 -121 l-104 -78 -118 53 c-136 62 -246 95 -312 95 -35 0 -59 -8 -96 -32 -332 -212 -816 -258 -1200 -113 -38 14 -120 53 -183 87 -111 59 -116 60 -175 55 -112 -9 -366 -111 -549 -220 -94 -56 -211 -143 -289 -215 -62 -58 -203 -228 -253 -307 -103 -160 -184 -373 -232 -612 -20 -101 -31 -927 -13 -1032 17 -106 59 -178 152 -266 68 -64 101 -86 202 -135 223 -108 402 -161 750 -225 624 -115 1482 -115 2096 1 359 68 587 137 806 244 195 97 284 192 319 345 14 59 16 138 12 569 -4 552 -3 543 -73 756 -82 248 -197 434 -384 621 l-126 127 65 40 c319 194 677 256 1121 192 203 -29 400 -108 595 -239 l90 -61 115 1 c63 1 172 4 243 8 l127 6 -70 82 c-78 92 -212 210 -328 291 -134 92 -349 194 -472 222 -30 7 -59 15 -64 18 -4 2 24 22 63 42 190 100 364 277 461 470 79 157 117 356 107 560 -24 462 -328 868 -762 1015 -166 56 -424 79 -570 51z m400 -386 c217 -68 385 -208 475 -395 64 -134 75 -181 75 -345 -1 -141 -1 -148 -38 -255 -47 -136 -100 -212 -222 -314 -99 -82 -142 -105 -275 -151 -80 -28 -113 -34 -210 -38 -148 -5 -221 11 -365 83 -163 81 -261 178 -343 340 -207 414 18 930 468 1073 93 30 102 31 240 27 93 -3 143 -9 195 -25z m-3444 -2409 c197 -94 386 -143 627 -162 298 -24 626 37 882 166 l92 46 107 -42 c240 -95 393 -193 504 -324 135 -158 222 -307 271 -462 48 -154 51 -192 51 -628 0 -372 -2 -414 -18 -457 -35 -90 -119 -140 -354 -208 -342 -100 -748 -163 -1240 -191 -568 -33 -1309 64 -1763 231 -114 41 -159 74 -190 135 -24 48 -24 56 -32 395 -9 377 -3 473 37 640 46 187 102 306 205 435 151 188 249 272 429 366 77 40 242 106 272 108 9 1 63 -21 120 -48z"/>
<path d="M6597 5095 c-47 -24 -307 -277 -329 -320 -26 -50 -27 -128 -3 -175 16 -31 720 -754 768 -789 18 -13 -8 -40 -362 -395 -382 -383 -411 -417 -411 -483 0 -75 19 -104 164 -251 77 -80 155 -151 173 -158 46 -20 122 -18 158 5 17 10 183 171 371 357 187 187 360 357 383 379 l41 39 388 -386 c395 -395 422 -418 494 -418 52 0 79 20 238 171 153 146 180 183 180 252 -1 72 -30 107 -421 502 l-383 386 387 387 c212 213 391 400 396 415 17 44 13 114 -8 155 -24 47 -287 307 -324 321 -39 15 -91 14 -130 -3 -18 -8 -203 -185 -420 -403 l-387 -388 -388 387 c-403 403 -432 427 -512 428 -19 0 -48 -7 -63 -15z"/>
</g>
</svg>
