<?xml version="1.0" standalone="no"?>
<!DOCTYPE svg PUBLIC "-//W3C//DTD SVG 20010904//EN"
 "http://www.w3.org/TR/2001/REC-SVG-20010904/DTD/svg10.dtd">
<svg version="1.0" xmlns="http://www.w3.org/2000/svg"
 width="1024.000000pt" height="1024.000000pt" viewBox="0 0 1024.000000 1024.000000"
 preserveAspectRatio="xMidYMid meet">

<g transform="translate(0.000000,1024.000000) scale(0.100000,-0.100000)"
fill="#000000" stroke="none">
<path d="M3172 9500 c-392 -50 -681 -232 -813 -515 -56 -120 -81 -248 -82
-415 0 -74 6 -172 12 -217 18 -125 76 -350 117 -455 44 -112 140 -306 190
-384 l37 -58 -7 -159 c-4 -88 -16 -246 -26 -351 -11 -104 -20 -209 -20 -232 0
-47 -4 -49 -115 -79 -311 -84 -621 -227 -751 -347 -80 -74 -557 -681 -776
-988 -330 -463 -391 -576 -405 -750 -4 -59 -1 -92 16 -155 55 -200 111 -258
726 -757 77 -62 166 -132 197 -156 79 -58 186 -160 203 -192 7 -14 16 -44 20
-65 13 -69 56 -145 121 -215 l64 -67 0 -74 c0 -41 -7 -159 -15 -264 -28 -368
-53 -766 -64 -1050 -8 -177 -7 -214 5 -233 l15 -22 1339 2 1339 3 23 23 23 23
5 880 5 881 -95 49 c-159 81 -286 204 -346 334 -67 144 -43 383 52 521 19 29
66 77 105 108 58 46 88 61 182 91 61 20 124 35 139 33 16 -3 28 -4 28 -3 0 0
-9 42 -20 93 -42 190 -37 293 19 417 58 128 248 255 506 338 184 60 572 141
792 166 74 8 89 20 200 159 41 50 78 92 83 92 14 0 19 -13 34 -93 34 -175 161
-595 244 -802 26 -66 51 -126 55 -132 11 -17 97 -16 222 2 55 8 103 15 108 15
13 0 8 38 -18 140 -14 55 -36 152 -49 217 -38 191 -189 728 -242 856 l-24 61
49 51 c120 121 157 325 90 493 -60 150 -188 277 -301 297 -28 5 -38 12 -38 26
0 25 -69 291 -130 505 -27 94 -59 211 -70 260 -30 128 -130 474 -146 506 -8
15 -30 39 -50 55 -30 22 -49 28 -105 31 -92 6 -145 -24 -183 -100 -44 -87 -47
-72 126 -643 33 -110 95 -310 139 -445 70 -217 77 -245 63 -253 -38 -22 -142
-117 -176 -163 -70 -91 -100 -226 -78 -344 l13 -69 -44 -58 c-24 -31 -105
-130 -179 -219 -74 -89 -175 -212 -223 -273 l-89 -112 -28 38 c-16 21 -53 70
-82 109 -29 40 -188 213 -353 385 -165 173 -328 344 -362 380 -71 74 -159 123
-283 159 -41 12 -126 38 -189 57 l-113 36 6 51 c3 28 6 72 6 99 l0 47 108 -6
c124 -8 244 11 321 51 62 32 125 98 156 167 31 69 105 358 105 414 0 65 24 80
124 76 77 -4 84 -2 114 23 29 24 32 32 32 82 0 71 -28 177 -88 338 -27 72 -62
170 -78 218 -28 86 -28 89 -11 119 37 65 5 351 -69 601 -4 12 0 17 13 17 23 0
72 59 109 130 24 48 28 66 28 144 l1 90 -60 23 c-265 100 -334 128 -435 173
-135 60 -294 110 -446 140 -124 25 -427 35 -552 20z m-1067 -5035 l0 -546
-105 108 c-58 60 -166 172 -240 250 -74 77 -150 151 -167 165 l-33 24 268 270
c147 149 269 271 272 272 3 1 5 -243 5 -543z m399 -785 c108 -41 198 -159 227
-299 17 -81 6 -222 -22 -299 -13 -34 -46 -93 -74 -130 -42 -56 -62 -73 -126
-106 -86 -43 -203 -62 -220 -35 -18 29 -7 40 76 79 60 29 94 52 119 83 76 94
111 204 104 334 -4 69 -10 93 -41 155 -41 85 -79 124 -162 170 -33 19 -61 41
-63 51 -5 26 110 23 182 -3z"/>
<path d="M7273 8652 c56 -58 82 -344 43 -482 -25 -92 -92 -227 -174 -353 -78
-119 -119 -210 -154 -337 -19 -71 -22 -109 -22 -230 0 -128 3 -155 27 -233 32
-103 68 -178 143 -294 74 -115 108 -184 135 -278 42 -149 26 -343 -42 -502
-17 -40 -17 -43 -1 -34 36 20 174 144 204 184 84 114 119 247 100 373 -16 98
-40 169 -117 334 -80 170 -99 245 -92 360 6 111 47 223 134 366 142 236 198
383 209 554 7 105 -13 208 -58 300 -45 93 -158 203 -265 258 -44 23 -85 42
-89 42 -4 0 4 -13 19 -28z"/>
<path d="M8094 8229 c40 -138 56 -220 56 -293 -1 -166 -39 -278 -178 -511
-107 -179 -137 -241 -178 -365 -25 -75 -28 -100 -28 -215 0 -120 3 -137 33
-230 38 -114 72 -185 144 -299 152 -243 189 -397 152 -638 -15 -102 -34 -159
-63 -192 -17 -18 -16 -18 18 -1 19 10 76 59 125 109 130 131 176 238 176 406
0 116 -19 181 -100 345 -91 182 -122 277 -128 385 -4 70 -1 96 16 149 29 85
79 183 157 307 126 200 164 311 164 480 0 231 -86 400 -261 515 -121 79 -113
76 -105 48z"/>
<path d="M6928 5193 c-27 -2 -48 -5 -48 -6 1 -1 20 -76 44 -167 l43 -165 254
-6 c140 -3 279 -9 309 -13 30 -3 161 -17 290 -31 129 -14 281 -34 337 -45 185
-37 391 -102 537 -170 48 -23 86 -68 86 -102 0 -25 -65 -94 -114 -123 -160
-92 -574 -180 -1091 -232 -278 -28 -999 -25 -1295 6 -266 27 -346 39 -580 91
-158 35 -386 108 -475 153 -39 19 -75 61 -75 87 0 43 29 71 114 111 218 102
502 174 806 205 91 9 166 18 168 19 1 1 -11 45 -27 96 -16 52 -35 123 -42 157
-6 35 -18 66 -26 69 -36 14 -519 -74 -759 -137 -239 -63 -431 -148 -538 -236
-122 -101 -139 -210 -52 -333 72 -100 67 -82 64 -248 -2 -84 -6 -153 -10 -153
-3 0 -43 16 -89 35 -45 20 -108 38 -140 42 -112 11 -254 -55 -329 -153 -68
-88 -89 -248 -49 -366 51 -154 155 -240 476 -398 l133 -65 0 -761 c0 -503 4
-780 11 -820 40 -219 198 -417 411 -513 272 -123 836 -202 1553 -217 443 -9
1074 32 1395 92 155 29 389 93 458 125 134 64 283 249 345 429 22 64 22 71 27
858 l5 794 185 96 c294 153 356 196 414 285 69 105 80 203 40 363 -16 62 -24
76 -78 130 -86 86 -193 137 -297 142 -74 4 -77 3 -173 -47 -54 -28 -99 -51
-100 -51 -1 0 0 80 2 178 l5 177 52 57 c89 95 96 170 27 269 -166 238 -696
403 -1551 483 -150 15 -519 19 -653 9z m-2166 -1415 l88 -43 1 -90 c1 -49 3
-118 4 -152 2 -35 1 -63 -2 -63 -3 0 -26 15 -52 33 -25 19 -75 51 -111 72
-108 63 -141 87 -156 116 -42 81 15 167 110 169 16 0 69 -19 118 -42z m4614 8
c27 -27 34 -42 34 -73 0 -69 -34 -98 -240 -206 l-125 -66 0 155 0 155 25 5
c29 7 54 15 130 43 30 11 75 20 99 21 36 0 49 -6 77 -34z"/>
</g>
</svg>
