<?xml version="1.0" standalone="no"?>
<!DOCTYPE svg PUBLIC "-//W3C//DTD SVG 20010904//EN" "http://www.w3.org/TR/2001/REC-SVG-20010904/DTD/svg10.dtd">
<svg xmlns="http://www.w3.org/2000/svg" version="1.0" width="1024.000000pt" height="1024.000000pt" viewBox="0 0 1024.000000 1024.000000" preserveAspectRatio="xMidYMid meet">
<metadata>
Created by potrace 1.16, written by Peter Selinger 2001-2019
<meta name="Producer" content="Online-Convert"/></metadata>
<g transform="translate(0.000000,1024.000000) scale(0.100000,-0.100000)" fill="#000000" stroke="none">
<path d="M6670 8951 c-73 -23 -142 -84 -179 -159 -29 -57 -38 -143 -56 -532 -27 -575 -75 -1438 -100 -1815 -25 -370 -75 -1168 -75 -1197 l0 -28 -119 0 -118 0 -7 323 c-4 177 -7 444 -8 592 -1 280 -5 313 -46 358 -52 58 -160 74 -235 36 -99 -51 -633 -401 -1193 -781 -214 -146 -480 -325 -591 -400 l-201 -135 -6 56 c-3 31 -8 301 -12 601 -5 518 -7 547 -26 588 -14 29 -34 50 -64 68 -39 23 -53 26 -107 22 -56 -4 -74 -12 -177 -75 -167 -101 -367 -233 -680 -445 -151 -103 -476 -322 -723 -488 -359 -241 -453 -309 -475 -342 -26 -40 -27 -47 -32 -207 -3 -91 -5 -927 -4 -1857 l1 -1692 24 -43 c13 -24 44 -57 67 -74 l44 -30 3436 -3 c2566 -2 3448 0 3479 9 59 16 118 69 140 127 17 45 18 122 17 1752 -1 1131 -6 1767 -13 1890 -6 102 -25 374 -41 605 -44 623 -67 1017 -95 1640 -30 666 -52 1113 -64 1286 -7 104 -13 135 -36 187 -31 69 -75 114 -144 146 -45 21 -56 21 -801 23 -415 1 -766 -2 -780 -6z m1353 -533 c4 -68 10 -189 13 -270 l7 -148 -603 0 -603 0 6 118 c4 64 10 186 14 270 l6 152 577 0 577 0 6 -122z m51 -960 c3 -73 9 -202 12 -285 l7 -153 -653 0 -653 0 7 163 c3 89 9 217 13 285 l6 122 627 0 627 0 7 -132z m40 -895 c3 -27 8 -93 11 -148 13 -227 56 -855 70 -1012 8 -92 15 -171 15 -175 0 -4 -347 -7 -771 -6 l-771 1 6 56 c3 31 13 171 21 311 29 474 45 724 57 873 l11 147 673 0 672 0 6 -47z m-2474 -1639 c10 -23 35 -54 56 -70 l37 -29 1254 -3 1253 -2 0 -1565 0 -1565 -3200 0 -3200 0 0 1648 0 1649 78 48 c137 87 400 264 712 480 321 223 662 453 684 461 11 4 15 -114 20 -607 5 -353 12 -623 18 -638 37 -99 161 -140 261 -86 55 29 659 433 1148 768 191 130 459 313 595 405 l249 167 8 -510 c8 -456 11 -514 27 -551z"/>
<path d="M2960 4001 c-442 -6 -447 -7 -491 -57 -46 -53 -46 -49 -53 -646 -7 -545 -7 -569 12 -610 23 -52 69 -93 120 -108 23 -6 240 -10 587 -10 l551 0 44 23 c26 13 57 40 75 65 l30 44 -2 565 c0 311 -4 581 -8 599 -7 40 -55 98 -99 121 -37 20 -154 22 -766 14z m470 -628 c0 -126 3 -265 7 -310 l6 -83 -318 0 -318 0 6 98 c4 53 7 193 7 310 l0 212 305 0 305 0 0 -227z"/>
<path d="M4898 4001 l-446 -6 -39 -31 c-21 -17 -47 -46 -58 -65 -19 -33 -20 -55 -23 -594 -2 -383 0 -572 8 -597 14 -50 56 -97 105 -119 37 -17 78 -19 593 -19 477 0 558 2 590 15 47 20 79 50 103 98 19 36 20 60 17 610 -3 628 0 598 -65 659 -60 57 -85 58 -785 49z m450 -713 l2 -308 -310 0 -310 0 5 303 c3 166 6 305 5 310 0 4 136 6 303 5 l302 -3 3 -307z"/>
<path d="M6585 4000 c-187 -4 -225 -8 -247 -22 -41 -27 -76 -79 -87 -128 -6 -26 -10 -268 -11 -582 -1 -469 1 -542 15 -575 21 -50 51 -82 100 -104 37 -17 76 -19 585 -19 345 0 559 4 582 10 49 14 94 53 120 104 21 40 21 46 16 607 -5 511 -8 570 -23 603 -24 50 -79 93 -133 105 -47 10 -534 10 -917 1z m674 -715 l3 -305 -312 0 -313 0 6 212 c4 116 7 253 7 305 l0 93 303 0 302 0 4 -305z"/>
</g>
</svg>
