<?xml version="1.0" standalone="no"?>
<!DOCTYPE svg PUBLIC "-//W3C//DTD SVG 20010904//EN" "http://www.w3.org/TR/2001/REC-SVG-20010904/DTD/svg10.dtd">
<svg xmlns="http://www.w3.org/2000/svg" version="1.0" width="1024.000000pt" height="1024.000000pt" viewBox="0 0 1024.000000 1024.000000" preserveAspectRatio="xMidYMid meet">
<metadata>
Created by potrace 1.16, written by Peter Selinger 2001-2019
<meta name="Producer" content="Online-Convert"/></metadata>
<g transform="translate(0.000000,1024.000000) scale(0.100000,-0.100000)" fill="#000000" stroke="none">
<path d="M3380 8399 c-283 -35 -533 -168 -757 -403 -246 -258 -347 -514 -347 -881 0 -191 16 -279 80 -440 172 -429 536 -730 956 -790 195 -28 399 -16 566 31 368 106 705 435 833 813 46 134 63 247 63 421 1 165 -10 233 -61 395 -135 428 -504 756 -945 840 -104 20 -291 27 -388 14z m359 -419 c151 -43 319 -138 405 -230 55 -59 129 -171 162 -247 14 -31 37 -104 51 -162 23 -95 25 -120 20 -236 -6 -148 -27 -235 -83 -348 -69 -137 -179 -265 -297 -346 -67 -46 -199 -105 -282 -127 -94 -25 -311 -26 -405 -1 -278 73 -536 331 -617 618 -25 89 -25 356 0 448 41 151 97 248 211 369 148 155 310 245 516 286 55 11 246 -4 319 -24z"/>
<path d="M5845 8111 c-250 -59 -463 -200 -640 -426 -112 -143 -166 -262 -204 -452 -84 -411 101 -888 449 -1155 19 -15 32 -29 30 -31 -3 -2 -41 -16 -85 -32 -195 -69 -378 -171 -522 -293 l-72 -61 -113 53 c-62 30 -175 75 -252 101 -159 54 -178 54 -284 1 -229 -114 -457 -176 -651 -176 -163 0 -363 54 -585 157 -155 73 -178 74 -346 8 -423 -164 -712 -371 -892 -640 -110 -164 -181 -323 -226 -505 l-25 -105 -4 -548 c-3 -368 -1 -565 6 -598 32 -148 140 -273 309 -357 196 -98 480 -177 830 -232 310 -48 464 -61 832 -67 489 -8 768 11 1164 77 308 52 473 98 676 189 186 83 281 162 340 285 48 103 52 159 47 705 -5 544 -9 601 -68 776 -69 208 -195 413 -352 572 -55 57 -99 104 -96 106 40 34 160 103 263 153 197 94 368 138 596 154 451 30 839 -70 1130 -293 156 -118 126 -107 279 -107 118 0 140 3 169 20 54 33 42 77 -57 198 -46 56 -186 172 -288 239 -104 68 -282 154 -394 190 -47 15 -87 32 -88 36 -1 4 25 28 57 52 189 142 374 412 434 635 19 74 22 108 22 260 0 156 -3 186 -26 271 -56 208 -150 372 -297 520 -146 145 -293 236 -486 300 -98 32 -104 33 -300 35 -167 3 -213 0 -280 -15z m458 -385 c118 -30 240 -92 313 -159 73 -67 165 -208 205 -315 27 -74 33 -104 37 -203 10 -252 -65 -431 -252 -606 -229 -214 -568 -263 -846 -123 -231 117 -393 369 -407 635 -10 178 36 332 141 479 109 152 303 283 456 309 14 2 77 5 141 6 94 1 135 -4 212 -23z m-1919 -2300 c326 -107 562 -291 720 -561 47 -81 105 -247 125 -359 7 -37 11 -249 11 -551 l0 -492 -22 -20 c-89 -82 -387 -172 -763 -232 -353 -56 -682 -76 -1090 -67 -382 8 -529 22 -880 87 -337 63 -655 175 -673 238 -4 14 -7 251 -7 526 l0 500 33 115 c95 325 285 548 615 720 99 52 273 120 307 120 11 0 64 -18 117 -40 452 -188 860 -181 1338 24 33 14 61 26 62 26 1 0 49 -15 107 -34z"/>
<path d="M7078 5031 c-53 -11 -83 -34 -107 -84 -20 -42 -21 -55 -21 -518 l0 -474 -498 0 c-482 0 -498 -1 -532 -21 -19 -11 -45 -38 -58 -60 -22 -38 -22 -44 -20 -341 3 -289 4 -303 24 -330 12 -15 36 -37 55 -48 33 -19 55 -20 531 -23 l497 -3 3 -487 c3 -466 4 -488 23 -521 11 -19 33 -43 48 -55 27 -20 42 -21 325 -24 319 -3 329 -2 378 49 l29 30 3 504 3 504 527 3 c491 3 529 4 557 21 17 10 39 31 50 45 19 25 20 45 23 337 3 310 3 311 -20 345 -13 19 -39 43 -58 54 -34 20 -48 21 -557 21 l-522 0 -3 492 c-3 482 -3 492 -24 520 -12 15 -36 37 -55 48 -31 19 -54 20 -299 22 -146 1 -281 -2 -302 -6z"/>
</g>
</svg>
