<?xml version="1.0" standalone="no"?>
<!DOCTYPE svg PUBLIC "-//W3C//DTD SVG 20010904//EN" "http://www.w3.org/TR/2001/REC-SVG-20010904/DTD/svg10.dtd">
<svg xmlns="http://www.w3.org/2000/svg" version="1.0" width="1024.000000pt" height="1024.000000pt" viewBox="0 0 1024.000000 1024.000000" preserveAspectRatio="xMidYMid meet">
<metadata>
Created by potrace 1.16, written by Peter Selinger 2001-2019
<meta name="Producer" content="Online-Convert"/></metadata>
<g transform="translate(0.000000,1024.000000) scale(0.100000,-0.100000)" fill="#000000" stroke="none">
<path d="M5041 8544 c-18 -14 -36 -35 -42 -45 -6 -11 -10 -118 -10 -264 0 -202 3 -250 16 -275 33 -64 117 -87 184 -50 65 37 71 63 71 326 0 251 -6 279 -64 315 -47 29 -117 25 -155 -7z"/>
<path d="M5092 7620 c-34 -8 -76 -41 -93 -73 -13 -23 -13 -542 0 -566 48 -89 174 -96 236 -13 19 25 20 45 23 287 2 233 1 264 -15 294 -32 61 -84 85 -151 71z"/>
<path d="M2660 7467 c-3 -3 -27 -8 -53 -11 -77 -11 -204 -54 -301 -103 -496 -251 -742 -831 -571 -1349 41 -124 96 -230 168 -326 87 -115 251 -261 340 -304 l37 -18 -89 -32 c-96 -34 -234 -99 -316 -148 -44 -26 -202 -140 -215 -155 -3 -3 -32 -31 -65 -61 -236 -218 -415 -521 -499 -845 -26 -103 -48 -309 -44 -423 3 -95 6 -114 34 -172 52 -111 141 -183 256 -210 48 -11 2184 -14 2238 -4 49 10 97 64 105 118 6 37 3 52 -15 81 -43 69 37 65 -1172 65 -854 0 -1098 3 -1118 13 -47 23 -62 71 -55 172 38 530 302 959 748 1212 223 126 562 206 802 188 360 -27 665 -153 933 -385 125 -108 224 -228 335 -407 l26 -42 49 24 c27 13 82 33 123 46 41 12 76 23 77 25 7 5 -81 149 -149 245 -228 322 -575 576 -939 686 -9 2 2 13 30 29 76 43 143 95 223 173 153 147 243 299 304 511 19 65 26 119 30 230 5 134 3 170 -22 303 -10 52 -57 181 -90 249 -50 101 -110 184 -199 277 -99 102 -197 177 -305 231 -170 86 -269 110 -476 117 -88 3 -162 3 -165 0z m336 -297 c281 -72 508 -285 605 -569 35 -100 52 -240 39 -328 -47 -344 -263 -610 -582 -719 -257 -87 -558 -31 -783 146 -134 106 -227 251 -280 434 -33 116 -35 292 -5 412 40 160 154 345 272 444 215 180 480 245 734 180z"/>
<path d="M7250 7456 c-207 -37 -371 -119 -559 -278 -169 -145 -314 -406 -353 -638 -7 -41 -12 -140 -12 -220 1 -163 22 -262 87 -416 86 -204 281 -427 460 -525 l49 -27 -68 -22 c-251 -81 -554 -281 -740 -487 -43 -48 -87 -97 -97 -108 -50 -54 -205 -310 -195 -321 3 -2 30 -11 61 -19 32 -8 84 -26 117 -40 33 -14 62 -25 64 -25 3 0 35 45 71 101 90 136 170 230 268 317 276 244 566 371 920 402 326 30 692 -71 966 -265 168 -119 276 -230 389 -400 142 -215 219 -454 237 -735 6 -85 4 -98 -14 -128 -12 -18 -33 -37 -47 -42 -16 -6 -432 -10 -1118 -10 l-1093 0 -34 -23 c-74 -50 -75 -158 -2 -214 l36 -28 1131 0 1131 0 58 28 c77 36 156 112 193 184 29 58 29 58 28 238 0 128 -5 205 -18 269 -90 457 -386 889 -777 1133 -99 62 -254 137 -347 168 l-82 28 51 29 c74 40 112 70 212 167 165 160 253 315 307 541 88 371 -31 783 -304 1053 -75 73 -183 155 -267 201 -64 35 -242 99 -309 111 -76 14 -325 14 -400 1z m388 -287 c344 -89 603 -392 637 -747 13 -134 -24 -324 -90 -453 -59 -116 -204 -268 -324 -339 -150 -89 -347 -132 -515 -111 -355 45 -624 281 -718 631 -28 106 -31 280 -5 378 63 238 214 443 410 556 51 29 187 88 187 81 0 -3 12 0 27 6 14 5 51 12 82 16 31 3 58 8 61 10 10 10 172 -9 248 -28z"/>
<path d="M5052 6648 c-12 -6 -32 -26 -43 -44 -19 -31 -20 -48 -19 -295 1 -283 4 -301 57 -336 37 -24 116 -22 151 4 58 42 62 65 62 331 0 271 -5 297 -62 332 -36 22 -108 26 -146 8z"/>
<path d="M4435 5829 c-20 -23 -49 -67 -64 -98 -23 -49 -26 -68 -26 -156 1 -91 4 -106 31 -165 17 -36 136 -226 263 -423 128 -197 234 -364 237 -372 3 -7 -50 -96 -117 -199 l-121 -186 -89 0 c-115 0 -176 -13 -275 -61 -121 -57 -215 -166 -260 -301 -22 -66 -24 -204 -5 -273 45 -159 167 -289 321 -341 86 -29 246 -26 325 5 164 67 275 201 305 371 20 112 -8 256 -69 352 l-29 45 26 34 c15 19 31 39 37 45 5 6 46 54 90 107 44 53 85 98 91 101 7 2 36 -26 65 -62 29 -37 86 -106 127 -154 l73 -87 -25 -39 c-57 -91 -72 -151 -70 -287 2 -110 26 -180 92 -268 85 -111 190 -169 333 -183 230 -22 453 123 521 338 22 74 24 201 3 283 -36 135 -137 256 -266 317 -93 45 -155 58 -272 58 l-92 1 -40 66 c-48 79 -87 139 -500 775 -508 783 -515 792 -551 796 -25 2 -37 -4 -69 -39z m741 -1162 c19 -17 27 -33 26 -55 -2 -62 -33 -88 -98 -80 -40 4 -70 63 -52 103 12 28 51 54 80 55 9 0 29 -11 44 -23z m-585 -727 c149 -77 172 -301 42 -409 -155 -128 -387 -12 -387 195 0 73 30 132 95 188 67 57 167 68 250 26z m1225 17 c131 -34 208 -173 169 -305 -63 -210 -342 -235 -438 -39 -70 143 6 311 158 348 45 11 56 10 111 -4z"/>
<path d="M5714 5862 c-20 -14 -535 -796 -531 -806 3 -7 55 -89 117 -184 l113 -172 210 317 c116 175 224 347 241 383 29 60 31 73 31 170 0 98 -2 110 -32 170 -52 106 -107 151 -149 122z"/>
<path d="M5041 3054 c-18 -14 -36 -35 -41 -45 -6 -11 -11 -122 -11 -265 -1 -276 0 -280 72 -316 44 -23 86 -23 126 2 66 40 68 47 68 320 0 227 -1 247 -20 274 -40 59 -141 75 -194 30z"/>
<path d="M5040 2173 c-17 -14 -36 -38 -42 -52 -5 -14 -9 -107 -8 -206 1 -193 4 -208 56 -242 37 -24 117 -22 152 3 54 40 62 73 62 252 0 119 -4 172 -14 197 -31 74 -144 101 -206 48z"/>
</g>
</svg>
