<?xml version="1.0" standalone="no"?>
<!DOCTYPE svg PUBLIC "-//W3C//DTD SVG 20010904//EN"
 "http://www.w3.org/TR/2001/REC-SVG-20010904/DTD/svg10.dtd">
<svg version="1.0" xmlns="http://www.w3.org/2000/svg"
 width="1024.000000pt" height="1024.000000pt" viewBox="0 0 1024.000000 1024.000000"
 preserveAspectRatio="xMidYMid meet">

<g transform="translate(0.000000,1024.000000) scale(0.100000,-0.100000)"
fill="#000000" stroke="none">
<path d="M3595 8633 c-89 -21 -134 -52 -166 -115 -17 -33 -20 -59 -20 -140 1
-114 17 -161 64 -187 70 -38 72 -42 69 -127 -9 -279 -33 -529 -98 -1049 -38
-304 -50 -366 -89 -471 -50 -132 -104 -216 -282 -435 -127 -156 -191 -282
-240 -468 -25 -95 -26 -99 -34 -691 -5 -327 -8 -1119 -7 -1760 3 -1161 3
-1165 24 -1220 35 -92 60 -135 115 -194 60 -66 115 -101 200 -127 58 -18 107
-19 952 -19 937 0 940 0 1027 45 48 24 112 78 149 123 l30 39 -121 79 c-204
132 -426 368 -575 607 -119 192 -219 436 -263 643 -27 125 -39 499 -21 639 36
269 157 579 323 822 156 229 427 470 666 591 l74 37 -7 125 c-17 317 -97 510
-325 785 -138 165 -206 281 -255 430 -53 163 -175 1200 -175 1488 l0 65 45 26
c68 40 85 82 85 206 0 112 -11 150 -56 192 -68 64 -62 63 -589 65 -264 1 -489
-1 -500 -4z"/>
<path d="M6048 5219 c-283 -27 -568 -129 -802 -287 -55 -37 -151 -116 -214
-176 -242 -233 -398 -501 -472 -810 -175 -728 133 -1474 763 -1855 482 -291
1097 -318 1614 -71 186 89 316 182 474 340 148 147 240 274 323 443 330 678
170 1496 -389 1991 -278 246 -621 393 -996 426 -128 11 -176 11 -301 -1z m390
-304 c494 -80 925 -439 1091 -908 57 -163 75 -272 75 -467 0 -143 -4 -194 -22
-278 -107 -496 -459 -886 -946 -1047 -146 -48 -276 -68 -441 -68 -165 0 -286
19 -434 69 -495 165 -846 576 -937 1094 -17 100 -20 324 -4 430 43 297 175
556 394 776 210 209 465 343 756 394 132 23 341 25 468 5z"/>
<path d="M6116 4574 c-33 -10 -64 -31 -97 -64 -157 -157 -61 -417 163 -437
101 -10 202 47 251 141 30 59 30 175 0 232 -30 57 -97 111 -157 129 -61 18
-97 18 -160 -1z"/>
<path d="M5794 3842 c-14 -9 -27 -140 -18 -187 9 -49 38 -65 128 -72 l76 -6 0
-383 0 -384 -75 0 c-67 0 -79 -3 -100 -25 -22 -21 -25 -33 -25 -100 0 -67 3
-79 25 -100 l24 -25 369 0 c430 0 402 -7 402 104 0 112 -30 146 -131 146 l-49
0 0 491 0 491 -29 29 -29 29 -279 0 c-153 0 -283 -4 -289 -8z"/>
</g>
</svg>
