<?xml version="1.0" standalone="no"?>
<!DOCTYPE svg PUBLIC "-//W3C//DTD SVG 20010904//EN" "http://www.w3.org/TR/2001/REC-SVG-20010904/DTD/svg10.dtd">
<svg xmlns="http://www.w3.org/2000/svg" version="1.0" width="1024.000000pt" height="1024.000000pt" viewBox="0 0 1024.000000 1024.000000" preserveAspectRatio="xMidYMid meet">
<metadata>
Created by potrace 1.16, written by Peter Selinger 2001-2019
<meta name="Producer" content="Online-Convert"/></metadata>
<g transform="translate(0.000000,1024.000000) scale(0.100000,-0.100000)" fill="#000000" stroke="none">
<path d="M2621 9559 c-71 -12 -110 -32 -155 -78 -32 -33 -46 -65 -102 -229 -35 -105 -64 -205 -64 -222 0 -70 66 -150 124 -150 60 0 59 1 41 -201 -15 -171 -30 -295 -55 -444 -5 -33 -14 -116 -20 -185 -6 -69 -12 -137 -15 -150 -2 -14 -7 -56 -10 -95 -21 -260 -47 -539 -60 -650 -8 -71 -17 -170 -20 -220 -3 -49 -7 -100 -10 -113 -10 -52 -68 -137 -205 -296 -186 -216 -262 -338 -320 -517 -36 -110 -65 -333 -56 -434 4 -38 6 -939 6 -2001 0 -1895 0 -1932 20 -2025 24 -113 61 -193 126 -276 90 -114 237 -167 544 -197 359 -34 870 -43 1220 -21 372 24 388 25 480 36 141 17 313 107 404 212 l49 57 1871 2 1871 3 65 23 c119 44 172 77 256 164 75 76 117 139 144 211 31 86 33 170 34 1467 l1 1306 55 78 c30 43 69 95 86 115 17 20 107 136 200 259 93 123 223 294 288 380 146 192 176 253 176 354 0 97 -12 136 -63 200 -52 67 -112 123 -242 223 -55 42 -118 94 -140 115 -77 73 -168 112 -292 125 l-63 7 -1 161 c-3 690 -9 1025 -18 1105 -14 128 -59 221 -156 317 -80 81 -150 124 -256 157 l-74 23 -1825 0 c-1343 0 -1842 -3 -1888 -12 -104 -19 -186 -66 -283 -163 -99 -98 -109 -115 -150 -253 -38 -127 -37 -118 -43 -566 -3 -205 -7 -376 -10 -378 -4 -5 -17 37 -30 97 -7 32 -52 556 -72 835 -2 39 -9 124 -14 190 -5 66 -12 158 -15 205 -6 83 -26 249 -45 380 -5 36 -12 94 -15 130 -4 36 -10 103 -15 150 -6 47 -10 88 -10 92 0 3 24 9 53 13 66 9 92 25 118 77 23 46 21 110 -6 176 -8 18 -26 82 -39 142 -39 173 -81 235 -187 277 -40 16 -97 18 -589 19 -300 1 -569 -2 -599 -7z m5675 -1701 c31 -13 80 -44 109 -70 97 -88 89 -18 95 -883 l5 -760 -194 -260 c-326 -435 -370 -493 -531 -695 -149 -187 -308 -391 -397 -512 -23 -31 -111 -143 -195 -250 -85 -106 -219 -276 -298 -378 -79 -102 -186 -236 -239 -298 -176 -207 -222 -267 -245 -317 -13 -27 -69 -230 -124 -450 -56 -220 -119 -470 -141 -555 -23 -84 -41 -167 -41 -182 0 -52 26 -97 66 -114 68 -29 82 -23 550 221 392 205 550 296 617 355 27 24 94 102 150 174 149 194 478 614 582 746 50 63 161 207 247 320 86 113 165 213 175 222 17 16 18 -24 15 -1120 -3 -1262 0 -1201 -69 -1282 -44 -51 -152 -114 -221 -129 -37 -8 -563 -11 -1825 -11 l-1772 0 0 2127 0 2128 -32 96 c-18 53 -33 104 -33 113 0 23 -74 169 -121 238 l-39 58 0 562 c0 346 4 588 11 628 15 95 54 173 110 224 89 80 -64 74 1941 75 l1788 1 56 -22z m-3958 -3886 l3 -1299 -73 -6 c-40 -4 -113 -11 -163 -17 -205 -22 -1248 -34 -1470 -17 -55 4 -147 9 -205 12 -172 8 -311 15 -387 21 l-73 6 0 1299 0 1299 1183 0 1182 0 3 -1298z m2406 -926 c66 -49 156 -114 200 -144 45 -30 82 -57 84 -61 2 -6 -185 -114 -298 -171 -36 -18 -90 -47 -120 -65 -73 -44 -94 -49 -114 -29 -12 12 -15 26 -10 52 12 72 127 513 133 510 3 -2 60 -43 125 -92z"/>
<path d="M4991 7280 c-52 -11 -107 -52 -136 -101 -19 -33 -20 -52 -20 -574 0 -601 -3 -569 69 -633 51 -44 86 -51 263 -47 87 2 313 7 502 10 375 7 383 8 439 66 50 51 56 88 44 294 -14 243 -31 285 -117 285 -29 0 -45 -9 -85 -46 -60 -56 -70 -85 -73 -212 l-2 -99 -134 -7 c-74 -3 -243 -6 -376 -6 l-242 0 -6 248 c-4 136 -7 314 -7 396 l0 148 283 -3 283 -4 42 27 c55 37 74 69 74 120 -1 47 -22 82 -72 116 -32 21 -40 22 -279 22 -135 0 -282 2 -326 5 -44 2 -100 0 -124 -5z"/>
<path d="M6041 7263 c-35 -17 -85 -75 -154 -178 -22 -33 -105 -144 -184 -247 -112 -146 -147 -186 -161 -181 -9 4 -62 35 -118 70 -55 35 -107 63 -115 63 -20 0 -75 -58 -88 -91 -12 -33 1 -93 26 -122 89 -106 214 -233 240 -244 42 -17 115 -17 156 1 43 18 84 68 313 381 241 330 275 380 285 423 21 97 -103 175 -200 125z"/>
<path d="M6539 6957 c-40 -26 -69 -79 -69 -123 0 -40 35 -92 80 -118 34 -21 46 -21 722 -20 661 1 687 2 720 21 43 25 78 78 78 117 0 43 -30 96 -70 124 l-33 22 -697 0 -697 0 -34 -23z"/>
<path d="M6532 6362 c-74 -57 -84 -162 -20 -222 53 -50 54 -50 613 -50 505 0 523 1 547 20 53 41 73 131 43 189 -8 16 -28 40 -45 55 l-32 26 -541 0 c-502 0 -544 -2 -565 -18z"/>
<path d="M5475 5500 c-442 -5 -462 -6 -505 -26 -57 -27 -95 -68 -114 -122 -22 -62 -12 -1029 11 -1079 21 -46 85 -100 132 -113 27 -7 198 -10 519 -8 l478 3 42 28 c23 15 54 46 69 69 l28 42 0 530 0 531 -23 47 c-29 58 -100 109 -146 106 -17 -1 -238 -5 -491 -8z m367 -334 c-4 -53 -5 -56 -30 -56 -14 0 -61 -25 -111 -58 -47 -33 -114 -75 -149 -95 l-63 -37 -39 20 c-49 25 -71 25 -121 0 -50 -26 -79 -72 -79 -128 0 -59 20 -93 92 -153 68 -56 94 -69 141 -69 45 0 76 22 210 148 64 61 126 116 137 122 20 11 20 7 20 -210 l0 -220 -365 0 -365 0 0 393 0 392 363 4 362 3 -3 -56z"/>
<path d="M6770 5119 c-113 -5 -227 -12 -255 -17 l-50 -8 1 -95 c1 -106 10 -131 56 -155 28 -15 69 -16 382 -9 256 5 360 11 383 20 45 19 73 69 73 128 0 60 -21 102 -63 124 -40 21 -220 25 -527 12z"/>
<path d="M5294 3710 c-282 -7 -293 -8 -334 -31 -24 -13 -57 -41 -74 -62 l-31 -39 0 -572 0 -572 28 -42 c15 -23 46 -54 69 -69 l42 -28 430 0 c415 0 432 1 466 20 81 48 90 138 21 206 -20 20 -54 42 -76 48 -26 7 -162 11 -378 11 l-337 0 2 422 c3 411 3 421 23 424 11 2 215 5 455 7 473 4 473 4 518 62 34 43 37 80 10 133 -41 82 -57 87 -318 88 -124 0 -356 -2 -516 -6z"/>
<path d="M5266 3080 c-23 -28 -26 -40 -26 -109 0 -85 12 -111 60 -136 24 -13 89 -15 389 -15 l361 0 32 29 c27 24 32 36 36 87 3 50 0 64 -20 93 -12 19 -36 44 -51 55 -27 20 -41 21 -391 24 l-363 3 -27 -31z"/>
</g>
</svg>
