<?xml version="1.0" standalone="no"?>
<!DOCTYPE svg PUBLIC "-//W3C//DTD SVG 20010904//EN" "http://www.w3.org/TR/2001/REC-SVG-20010904/DTD/svg10.dtd">
<svg xmlns="http://www.w3.org/2000/svg" version="1.0" width="1024.000000pt" height="1024.000000pt" viewBox="0 0 1024.000000 1024.000000" preserveAspectRatio="xMidYMid meet">
<metadata>
Created by potrace 1.16, written by Peter Selinger 2001-2019
<meta name="Producer" content="Online-Convert"/></metadata>
<g transform="translate(0.000000,1024.000000) scale(0.100000,-0.100000)" fill="#000000" stroke="none">
<path d="M3953 9420 c-216 -30 -406 -124 -553 -271 -158 -158 -247 -351 -269 -582 l-8 -88 -44 -36 c-94 -78 -150 -147 -194 -238 -50 -103 -66 -171 -67 -282 -1 -149 50 -256 148 -311 15 -8 12 -27 -31 -213 -25 -112 -77 -339 -115 -504 -80 -352 -99 -427 -190 -762 -78 -285 -111 -444 -141 -677 -35 -266 -17 -664 42 -926 66 -297 139 -475 314 -765 126 -209 221 -330 396 -502 263 -258 530 -433 824 -539 72 -25 160 -62 197 -80 57 -29 72 -42 98 -87 46 -80 54 -120 42 -206 -15 -110 -75 -224 -155 -296 -93 -85 -175 -120 -342 -150 -182 -32 -272 -57 -370 -105 -241 -116 -411 -366 -445 -650 -26 -218 -3 -296 105 -353 l40 -22 1853 -3 c1226 -1 1867 1 1891 8 57 15 103 51 131 100 22 40 24 56 23 150 -5 404 -247 722 -635 835 -32 9 -117 27 -190 40 -168 31 -250 69 -350 163 -101 95 -149 205 -151 340 0 77 16 122 63 176 40 45 90 71 241 127 619 227 1144 741 1422 1394 136 318 202 667 201 1060 -1 321 -45 567 -194 1090 -82 289 -134 492 -189 742 -22 98 -85 369 -139 603 -55 234 -103 450 -107 480 -36 293 -179 540 -406 700 -148 104 -269 150 -459 175 -132 18 -219 15 -344 -10 -68 -14 -86 -13 -86 6 0 24 -83 149 -140 212 -180 196 -430 288 -701 258 -122 -14 -206 -40 -294 -91 l-69 -41 -76 35 c-92 43 -144 62 -229 82 -81 18 -264 26 -348 14z m245 -405 c83 -20 157 -58 213 -110 119 -111 215 -110 334 4 33 32 78 67 100 78 122 62 334 54 440 -17 96 -64 174 -177 195 -285 20 -105 30 -133 56 -165 37 -44 75 -60 140 -60 47 0 68 7 128 40 92 51 169 70 276 70 187 -1 344 -63 466 -185 72 -72 133 -175 149 -252 l7 -33 -1704 0 -1703 0 92 85 c117 109 133 140 133 266 0 179 44 294 155 404 145 146 336 204 523 160z m2660 -1633 c39 -176 74 -326 78 -335 6 -16 -124 -17 -1841 -17 -1754 0 -1846 1 -1841 18 5 15 36 150 123 535 l27 117 1691 0 1691 0 72 -318z m200 -863 c62 -209 181 -664 211 -804 98 -462 75 -907 -69 -1345 -80 -246 -185 -439 -346 -641 -242 -303 -590 -551 -959 -683 -291 -104 -408 -222 -460 -460 -24 -109 -17 -321 15 -421 61 -194 192 -371 360 -485 133 -90 253 -135 453 -170 134 -23 193 -41 256 -77 89 -52 163 -138 195 -231 l15 -42 -1619 0 c-1462 0 -1620 2 -1620 16 0 29 50 121 90 167 86 97 172 135 388 171 227 38 348 88 497 206 157 126 271 304 311 488 52 243 10 474 -115 629 -52 65 -165 141 -262 178 -41 16 -103 39 -139 53 -408 153 -795 463 -1043 834 -133 199 -219 396 -278 632 -57 232 -72 381 -66 656 5 230 21 360 78 613 28 129 150 586 215 810 5 16 106 17 1932 17 l1927 0 33 -111z"/>
<path d="M5012 6473 c-42 -20 -77 -66 -91 -118 -6 -22 -11 -100 -11 -172 l0 -133 -77 0 c-98 0 -247 -22 -338 -50 -259 -80 -498 -279 -625 -522 -49 -92 -113 -283 -131 -388 -14 -84 -18 -270 -7 -312 17 -59 104 -128 163 -128 l25 0 0 -109 c0 -250 96 -585 190 -664 59 -50 169 -49 287 2 40 17 74 31 77 31 2 0 10 -17 16 -37 49 -153 128 -287 254 -433 70 -81 239 -235 283 -259 38 -20 131 -19 168 1 46 25 243 205 305 279 73 88 177 263 214 364 17 44 31 81 31 82 1 1 35 -11 76 -28 75 -32 175 -47 223 -35 36 9 103 72 127 118 25 50 64 157 83 233 25 100 49 314 43 388 l-6 67 27 0 c15 0 45 9 67 19 110 51 135 148 99 389 -45 302 -197 589 -395 746 -199 157 -399 229 -676 243 l-113 6 0 146 c0 121 -4 153 -19 186 -21 46 -54 79 -94 94 -42 16 -137 13 -175 -6z m-212 -837 c0 -27 -90 -192 -143 -261 -68 -90 -147 -153 -267 -215 -89 -45 -247 -106 -256 -98 -7 7 24 105 54 171 67 147 180 270 306 334 130 67 306 106 306 69z m775 -12 c54 -14 119 -36 144 -49 68 -35 155 -108 207 -173 49 -61 125 -207 148 -284 13 -44 13 -48 -2 -48 -38 0 -184 60 -282 115 -120 67 -210 147 -275 246 -46 68 -105 185 -105 207 0 19 56 15 165 -14z m-442 -309 c58 -121 225 -335 290 -372 18 -9 18 -12 -8 -64 -62 -123 -157 -244 -246 -314 -69 -54 -54 -59 -170 55 -68 68 -147 177 -193 269 l-27 53 23 16 c67 47 135 126 215 253 49 76 91 139 94 139 3 0 13 -16 22 -35z m-673 -580 c0 -30 49 -123 103 -194 31 -41 54 -77 52 -82 -24 -38 -248 -189 -261 -176 -3 2 -12 37 -21 78 -17 79 -21 276 -5 318 5 16 27 31 63 46 66 28 69 29 69 10z m1430 -41 c13 -14 11 -262 -4 -333 -9 -41 -18 -76 -21 -80 -12 -11 -111 50 -188 115 l-77 65 56 72 c58 74 96 141 108 189 l6 28 57 -26 c31 -13 59 -27 63 -30z m-525 -551 c19 -21 35 -42 35 -47 0 -5 -17 -52 -39 -105 -47 -118 -110 -218 -190 -302 l-60 -64 -46 45 c-73 71 -190 253 -225 349 l-31 85 35 35 35 35 55 -52 c67 -63 88 -72 175 -72 75 0 108 17 180 94 19 20 36 36 38 36 1 0 18 -17 38 -37z"/>
</g>
</svg>
