<?xml version="1.0" standalone="no"?>
<!DOCTYPE svg PUBLIC "-//W3C//DTD SVG 20010904//EN" "http://www.w3.org/TR/2001/REC-SVG-20010904/DTD/svg10.dtd">
<svg xmlns="http://www.w3.org/2000/svg" version="1.0" width="1024.000000pt" height="1024.000000pt" viewBox="0 0 1024.000000 1024.000000" preserveAspectRatio="xMidYMid meet">
<metadata>
Created by potrace 1.16, written by Peter Selinger 2001-2019
<meta name="Producer" content="Online-Convert"/></metadata>
<g transform="translate(0.000000,1024.000000) scale(0.100000,-0.100000)" fill="#000000" stroke="none">
<path d="M4400 9439 c-118 -23 -246 -123 -295 -231 -15 -33 -28 -88 -34 -143 -17 -155 -34 -461 -27 -497 15 -84 107 -178 193 -200 30 -7 43 -16 43 -28 0 -10 -16 -181 -35 -381 -19 -200 -46 -483 -60 -629 -45 -469 -51 -507 -85 -576 -31 -63 -109 -142 -315 -316 -124 -105 -285 -271 -329 -341 -54 -84 -96 -189 -117 -292 -18 -86 -19 -182 -19 -2157 0 -1746 2 -2078 14 -2141 50 -262 226 -483 479 -603 156 -73 74 -69 1322 -69 l1120 0 80 28 c274 96 465 295 552 574 l28 88 0 2125 c0 2389 7 2161 -76 2338 -78 168 -172 270 -464 504 -209 167 -260 233 -284 363 -28 154 -131 1292 -131 1450 l0 61 46 12 c34 9 61 27 103 70 83 83 87 103 72 366 -7 116 -16 239 -21 274 -24 174 -155 314 -328 351 -64 13 -1362 14 -1432 0z m1334 -431 c8 -14 17 -66 21 -125 l7 -103 -648 0 -647 0 7 61 c3 34 6 82 6 105 0 31 6 50 20 64 20 20 33 20 620 20 l600 0 14 -22z m-204 -688 c0 -63 85 -963 125 -1330 29 -258 52 -346 122 -466 61 -104 174 -219 389 -394 184 -151 252 -218 284 -280 50 -99 48 2 55 -2175 6 -1826 5 -2037 -9 -2098 -40 -171 -142 -280 -301 -322 -86 -22 -2060 -23 -2144 0 -166 44 -275 158 -310 323 -12 58 -14 2831 -2 3712 l6 475 28 58 c37 75 111 153 277 295 370 316 465 448 499 697 15 103 151 1473 151 1514 l0 31 415 0 415 0 0 -40z"/>
<path d="M4318 5394 c-174 -42 -316 -190 -348 -363 -6 -34 -10 -459 -10 -1155 0 -1188 0 -1177 53 -1282 52 -102 143 -181 263 -226 l59 -23 785 0 785 0 59 23 c120 45 211 124 263 226 53 105 53 93 53 1288 0 773 -3 1123 -11 1160 -37 174 -184 318 -367 357 -84 18 -1509 14 -1584 -5z m1519 -427 l28 -27 3 -1056 2 -1056 -34 -34 -34 -34 -682 0 -682 0 -34 34 -34 34 0 1052 0 1052 34 34 34 34 686 -2 686 -3 27 -28z"/>
</g>
</svg>
