<?xml version="1.0" standalone="no"?>
<!DOCTYPE svg PUBLIC "-//W3C//DTD SVG 20010904//EN"
 "http://www.w3.org/TR/2001/REC-SVG-20010904/DTD/svg10.dtd">
<svg version="1.0" xmlns="http://www.w3.org/2000/svg"
 width="1024.000000pt" height="1024.000000pt" viewBox="0 0 1024.000000 1024.000000"
 preserveAspectRatio="xMidYMid meet">

<g transform="translate(0.000000,1024.000000) scale(0.100000,-0.100000)"
fill="#000000" stroke="none">
<path d="M3307 8826 c-76 -28 -107 -78 -107 -173 0 -68 24 -115 71 -141 65
-36 63 -13 34 -282 -14 -135 -39 -357 -55 -495 -16 -137 -48 -415 -70 -617
-26 -241 -47 -390 -61 -435 -31 -102 -99 -224 -197 -358 -49 -66 -107 -150
-129 -187 -50 -84 -100 -232 -112 -335 -14 -117 -14 -3633 0 -3708 19 -104 80
-183 178 -228 46 -22 51 -22 840 -25 702 -2 800 -1 849 13 72 21 126 56 162
107 62 86 60 37 60 1220 l0 1078 -46 62 c-90 121 -181 342 -226 548 -19 91
-22 134 -22 315 0 159 4 233 17 303 30 159 85 332 141 447 l54 110 -42 80
c-23 44 -75 124 -115 179 -147 199 -199 294 -226 410 -15 64 -50 372 -85 736
-11 118 -32 319 -46 445 -14 127 -33 310 -43 408 l-17 179 31 12 c36 15 82 67
91 102 12 48 -1 139 -25 172 -47 67 -44 67 -476 69 -311 2 -398 0 -428 -11z"/>
<path d="M5953 6639 c-452 -65 -870 -361 -1088 -771 -256 -482 -210 -1091 118
-1534 112 -151 298 -312 477 -411 314 -175 713 -222 1077 -127 51 13 121 35
155 49 l60 25 30 -22 c37 -26 122 -132 212 -264 68 -101 68 -102 56 -139 -20
-61 -7 -108 51 -188 29 -40 212 -289 407 -554 l354 -483 64 -31 c58 -29 71
-31 129 -27 77 7 151 40 230 104 108 88 153 193 120 280 -16 41 -205 299 -664
901 -201 264 -222 283 -315 283 -41 0 -46 3 -70 44 -40 68 -144 206 -204 268
l-55 57 74 73 c220 216 368 506 415 813 22 141 14 396 -15 525 -61 264 -166
473 -329 655 -223 249 -518 412 -851 470 -92 16 -336 18 -438 4z m322 -350
c454 -54 793 -334 930 -769 117 -374 17 -788 -259 -1078 -278 -292 -681 -404
-1080 -302 -375 96 -691 418 -787 804 -26 104 -36 297 -20 407 65 452 438 842
882 923 146 27 213 30 334 15z"/>
</g>
</svg>
