<?xml version="1.0" standalone="no"?>
<!DOCTYPE svg PUBLIC "-//W3C//DTD SVG 20010904//EN" "http://www.w3.org/TR/2001/REC-SVG-20010904/DTD/svg10.dtd">
<svg xmlns="http://www.w3.org/2000/svg" version="1.0" width="1024.000000pt" height="1024.000000pt" viewBox="0 0 1024.000000 1024.000000" preserveAspectRatio="xMidYMid meet">
<metadata>
Created by potrace 1.16, written by Peter Selinger 2001-2019
<meta name="Producer" content="Online-Convert"/></metadata>
<g transform="translate(0.000000,1024.000000) scale(0.100000,-0.100000)" fill="#000000" stroke="none">
<path d="M4992 9291 c-73 -19 -150 -92 -178 -168 -7 -21 -13 -66 -14 -101 0 -104 46 -168 155 -217 76 -33 86 -64 93 -281 2 -94 2 -187 -2 -206 l-6 -35 -94 -6 c-404 -27 -827 -165 -1186 -389 -344 -214 -660 -534 -861 -872 -207 -348 -344 -783 -351 -1120 -2 -73 1 -87 25 -128 22 -38 40 -53 93 -79 62 -31 71 -32 185 -33 104 0 120 -2 115 -16 -2 -8 -25 -64 -51 -125 -60 -141 -117 -339 -147 -502 -20 -113 -23 -160 -23 -408 0 -320 6 -354 77 -431 59 -64 100 -76 251 -72 122 3 126 2 122 -17 -52 -226 -69 -395 -62 -630 8 -260 47 -482 117 -668 45 -121 135 -198 238 -205 77 -5 284 38 447 93 71 24 131 43 132 42 1 -1 13 -55 28 -120 70 -315 209 -616 401 -874 129 -172 360 -382 493 -449 76 -37 164 -38 241 -2 84 39 189 118 301 226 309 296 535 712 616 1133 9 49 20 89 24 89 4 0 38 -12 75 -26 108 -41 218 -72 331 -94 181 -35 241 -25 321 53 60 58 77 90 112 202 77 251 113 581 91 840 -11 126 -43 343 -57 388 -5 16 5 17 117 17 151 0 191 11 250 70 75 74 82 106 87 384 2 144 -1 277 -7 335 -25 210 -79 413 -167 629 -30 74 -54 135 -54 136 0 2 53 3 118 3 219 1 302 62 302 222 0 141 -49 421 -102 581 -190 580 -537 1045 -1018 1365 -281 187 -640 340 -952 406 l-103 21 0 247 c0 226 -2 253 -23 326 -54 187 -192 366 -344 446 -45 23 -110 31 -156 20z m206 -1535 c80 -64 206 -193 251 -259 104 -152 152 -367 131 -590 -26 -271 -150 -515 -374 -737 l-86 -85 -91 90 c-119 118 -200 227 -259 350 -168 345 -155 726 34 988 70 98 280 296 314 297 7 0 43 -24 80 -54z m-868 -160 c-136 -299 -166 -600 -94 -952 6 -30 1 -35 -88 -108 -297 -244 -616 -378 -1016 -426 -52 -7 -96 -9 -99 -6 -3 2 8 58 25 123 156 621 595 1139 1177 1389 66 29 121 51 123 50 1 -2 -11 -33 -28 -70z m1710 -2 c255 -107 518 -303 706 -527 200 -237 376 -584 439 -862 9 -38 18 -78 21 -89 6 -17 1 -18 -67 -11 -407 39 -757 182 -1057 431 -95 78 -89 53 -57 234 13 74 16 133 12 265 -4 148 -8 185 -35 287 -16 64 -49 162 -71 218 -23 56 -41 104 -41 107 0 7 38 -6 150 -53z m-1556 -1469 c42 -64 129 -169 198 -241 l50 -51 -45 -115 c-75 -191 -149 -327 -257 -468 -263 -345 -668 -591 -1110 -675 -47 -9 -96 -18 -109 -21 l-24 -5 6 173 c3 95 13 210 21 256 46 251 134 480 258 674 45 70 54 79 91 88 122 29 337 108 452 164 133 66 309 176 380 240 22 19 43 35 46 36 3 0 23 -25 43 -55z m1418 -26 c211 -162 535 -315 769 -362 l63 -13 49 -79 c116 -190 198 -413 243 -660 8 -44 18 -159 21 -256 l6 -176 -59 9 c-197 30 -386 93 -574 189 -186 96 -302 181 -455 334 -188 187 -315 384 -415 637 l-43 107 72 77 c40 43 104 121 144 175 62 86 74 97 88 86 10 -7 50 -37 91 -68z m-753 -581 c41 -106 156 -328 220 -423 76 -114 148 -204 265 -330 l93 -101 -32 -119 c-54 -198 -137 -368 -258 -531 -58 -77 -207 -235 -280 -296 l-47 -40 -133 134 c-231 232 -357 448 -442 763 l-27 97 104 107 c124 126 193 211 282 348 69 105 185 335 207 411 7 23 15 42 18 42 3 0 17 -28 30 -62z m-984 -1241 c68 -207 208 -465 338 -620 l41 -50 -115 -111 c-148 -142 -269 -229 -444 -316 -124 -62 -329 -135 -347 -124 -9 6 -36 130 -54 248 -20 133 -20 391 0 527 18 115 45 222 79 312 20 52 26 59 67 74 89 32 226 94 305 138 44 24 82 44 85 44 3 0 23 -55 45 -122z m2095 49 c80 -40 177 -83 215 -96 39 -12 76 -30 83 -38 20 -26 68 -187 88 -297 15 -79 19 -148 19 -325 0 -221 -5 -278 -42 -443 l-15 -68 -40 6 c-158 27 -414 152 -585 286 -84 66 -222 197 -254 241 l-19 27 69 96 c138 189 280 470 322 636 7 27 13 49 13 49 1 0 66 -33 146 -74z m-1342 -1080 c76 -57 114 -76 170 -83 67 -8 121 10 212 71 l80 54 118 -117 c65 -64 146 -136 180 -161 58 -42 61 -47 62 -86 0 -79 -42 -290 -85 -421 -94 -285 -254 -526 -478 -717 l-57 -48 -55 42 c-143 111 -317 335 -409 530 -81 171 -139 382 -154 564 l-8 88 90 73 c50 40 129 113 176 163 47 49 89 90 93 91 5 1 34 -19 65 -43z"/>
</g>
</svg>
