<?xml version="1.0" standalone="no"?>
<!DOCTYPE svg PUBLIC "-//W3C//DTD SVG 20010904//EN"
 "http://www.w3.org/TR/2001/REC-SVG-20010904/DTD/svg10.dtd">
<svg version="1.0" xmlns="http://www.w3.org/2000/svg"
 width="1024.000000pt" height="1024.000000pt" viewBox="0 0 1024.000000 1024.000000"
 preserveAspectRatio="xMidYMid meet">

<g transform="translate(0.000000,1024.000000) scale(0.100000,-0.100000)"
fill="#000000" stroke="none">
<path d="M2718 8405 c-92 -34 -133 -88 -153 -201 -27 -148 -15 -217 46 -280
l29 -30 -14 -105 c-8 -57 -38 -311 -66 -564 -27 -253 -53 -473 -56 -490 -13
-63 -66 -154 -151 -257 -99 -119 -144 -189 -180 -280 -45 -110 -52 -187 -53
-530 l0 -318 -127 0 c-103 0 -136 -4 -169 -19 -48 -22 -101 -82 -114 -131 -6
-21 -10 -245 -10 -544 0 -496 1 -511 21 -553 27 -56 89 -108 144 -122 24 -6
73 -11 110 -11 l65 0 -2 -167 -3 -168 -90 -5 c-97 -6 -133 -20 -183 -70 -63
-63 -63 -61 -60 -630 3 -569 0 -541 69 -608 48 -47 93 -64 185 -70 l83 -5 3
-143 c3 -140 4 -143 33 -186 20 -28 49 -53 84 -70 l55 -28 2905 0 c2810 0
2907 1 2946 19 22 10 54 34 72 52 53 56 63 93 63 232 l0 124 83 5 c108 6 177
41 222 113 l30 48 3 524 c2 501 2 524 -17 560 -25 49 -76 98 -123 117 -23 10
-68 16 -118 16 l-80 0 0 169 0 169 88 4 c62 3 98 10 128 26 52 27 100 81 114
129 8 26 10 201 8 559 l-3 520 -28 42 c-15 23 -46 54 -69 69 -39 27 -48 28
-179 31 l-137 3 -4 357 -3 357 -28 79 c-35 100 -81 181 -152 271 -121 153
-149 192 -172 242 -21 45 -31 115 -78 540 -30 268 -61 534 -68 591 -13 102
-13 103 10 124 60 57 75 141 49 283 -15 83 -26 107 -74 157 -64 67 -82 69
-503 66 l-374 -3 -48 -28 c-83 -49 -107 -102 -130 -287 -8 -61 11 -126 52
-171 l37 -42 -28 -196 c-15 -108 -27 -213 -28 -233 0 -54 -17 -55 -23 -2 -7
63 -50 122 -112 153 l-49 26 -353 3 c-203 2 -368 -1 -387 -7 -41 -11 -38 -18
-57 151 l-12 107 28 33 c39 46 55 89 55 147 0 63 -24 191 -44 229 -22 43 -89
99 -133 111 -61 17 -728 15 -787 -3 -94 -28 -144 -88 -164 -196 -29 -154 -20
-225 39 -286 l31 -32 -18 -126 -18 -125 -370 -3 c-410 -3 -401 -2 -474 -71
-33 -32 -61 -102 -63 -161 -2 -43 -23 85 -50 301 l-22 181 35 42 c53 61 61
108 43 232 -22 149 -72 220 -174 248 -58 16 -737 12 -783 -5z m535 -172 l219
-6 9 -24 c5 -13 12 -48 15 -77 6 -46 4 -56 -15 -75 -21 -21 -28 -21 -361 -21
-398 0 -380 -5 -380 100 0 51 4 65 25 85 23 24 30 25 147 25 68 0 221 -3 341
-7z m2204 -19 c6 -8 14 -43 18 -77 7 -58 6 -62 -19 -84 l-27 -23 -340 0 c-330
0 -340 1 -360 21 -18 18 -20 28 -14 82 9 80 18 95 58 99 17 2 176 2 352 0 275
-2 322 -4 332 -18z m2018 6 c7 -6 18 -37 24 -70 13 -65 6 -91 -29 -110 -12 -6
-146 -10 -359 -10 -331 0 -342 1 -362 21 -17 17 -19 28 -14 67 11 84 16 102
33 112 23 14 689 5 707 -10z m-2891 -792 c8 -13 17 -49 21 -80 5 -49 4 -59
-14 -77 -20 -20 -31 -21 -366 -21 -337 0 -346 1 -366 21 -18 18 -20 28 -14 82
12 103 -13 97 381 97 l344 0 14 -22z m1784 9 c6 -7 16 -42 21 -77 10 -60 9
-66 -11 -87 l-21 -23 -347 0 c-333 0 -348 1 -365 20 -15 16 -17 30 -11 82 11
104 -13 98 381 98 267 0 345 -3 353 -13z m-2650 -297 c23 -29 23 -31 10 -132
-7 -57 -14 -94 -15 -83 -16 116 -28 245 -24 244 3 0 16 -13 29 -29z m2821 -35
c-5 -33 -12 -85 -17 -115 l-8 -55 -12 88 -11 88 26 29 c14 17 27 29 29 28 1
-2 -2 -30 -7 -63z m1793 -1962 c17 -15 18 -43 18 -480 0 -450 -1 -464 -20
-483 -20 -20 -33 -20 -3208 -20 -2737 0 -3191 2 -3208 14 -18 14 -19 32 -22
476 -2 405 -1 465 13 486 l15 24 3197 0 c2960 0 3198 -1 3215 -17z m0 -1720
c17 -15 18 -43 18 -479 0 -407 -2 -464 -16 -478 -14 -15 -320 -16 -3214 -16
l-3199 0 -15 22 c-14 20 -16 81 -16 473 0 392 2 453 16 473 l15 22 3196 0
c2960 0 3198 -1 3215 -17z"/>
<path d="M2343 4774 c-68 -34 -93 -126 -53 -191 69 -113 243 -61 243 72 0 72
-46 123 -120 131 -24 3 -50 -2 -70 -12z"/>
<path d="M7773 4771 c-40 -25 -63 -69 -63 -120 0 -73 87 -141 159 -124 75 17
124 98 101 167 -27 82 -127 121 -197 77z"/>
<path d="M7805 3069 c-113 -32 -126 -200 -20 -245 47 -19 84 -18 122 6 65 39
84 109 49 178 -25 49 -94 77 -151 61z"/>
<path d="M2312 3036 c-35 -33 -37 -38 -37 -96 0 -58 2 -63 37 -96 32 -29 45
-34 87 -34 39 0 56 6 82 27 70 59 71 142 4 202 -30 26 -44 31 -85 31 -43 0
-56 -5 -88 -34z"/>
</g>
</svg>
