<?xml version="1.0" standalone="no"?>
<!DOCTYPE svg PUBLIC "-//W3C//DTD SVG 20010904//EN"
 "http://www.w3.org/TR/2001/REC-SVG-20010904/DTD/svg10.dtd">
<svg version="1.0" xmlns="http://www.w3.org/2000/svg"
 width="1024.000000pt" height="1024.000000pt" viewBox="0 0 1024.000000 1024.000000"
 preserveAspectRatio="xMidYMid meet">

<g transform="translate(0.000000,1024.000000) scale(0.100000,-0.100000)"
fill="#000000" stroke="none">
<path d="M2640 8921 c-58 -31 -74 -62 -78 -149 -3 -66 -1 -80 17 -98 11 -12
24 -24 30 -25 6 -3 4 -28 -6 -69 -19 -84 -12 -158 22 -216 l27 -45 -16 -117
c-8 -64 -18 -139 -20 -167 -9 -82 -85 -708 -107 -875 -30 -235 -56 -309 -149
-430 -132 -171 -188 -273 -225 -413 -24 -90 -25 -101 -25 -454 l0 -363 915 0
915 0 0 338 c0 492 -15 554 -197 807 -127 178 -164 254 -177 375 -3 30 -15
127 -26 215 -29 229 -39 313 -45 370 -14 128 -36 317 -45 380 -5 39 -12 93
-15 120 -3 28 -7 70 -10 95 -3 25 -7 65 -11 90 -4 33 0 57 15 90 23 51 26 117
10 205 -8 46 -8 60 1 63 36 12 50 42 50 107 0 83 -23 132 -78 163 -39 22 -46
22 -389 22 -320 0 -351 -2 -383 -19z"/>
<path d="M4639 8918 c-50 -34 -69 -79 -69 -166 0 -68 2 -73 28 -90 23 -14 27
-21 21 -47 -4 -16 -7 -67 -8 -113 -1 -65 4 -94 20 -133 l22 -50 -27 -227 c-16
-125 -29 -240 -31 -257 -2 -16 -7 -55 -10 -85 -3 -30 -14 -122 -25 -205 -10
-82 -22 -175 -25 -205 -20 -188 -49 -373 -66 -426 -25 -76 -65 -144 -165 -276
-85 -113 -137 -213 -164 -316 -16 -58 -18 -116 -19 -444 l-1 -378 915 0 916 0
-3 383 c-4 357 -6 386 -26 451 -34 110 -73 183 -166 311 -120 166 -162 254
-181 380 -16 107 -41 305 -49 395 -3 30 -13 111 -21 180 -16 131 -71 604 -79
677 -3 29 1 57 15 88 27 62 34 131 19 208 l-12 64 32 32 c31 31 32 34 28 101
-4 74 -19 105 -72 144 -26 20 -42 21 -395 24 l-367 3 -35 -23z"/>
<path d="M6595 8926 c-43 -19 -71 -54 -85 -105 -17 -65 -7 -131 25 -157 26
-21 26 -22 14 -83 -14 -75 -6 -173 20 -216 10 -17 17 -44 15 -61 -2 -16 -13
-103 -24 -194 -11 -91 -22 -190 -25 -220 -3 -30 -12 -107 -20 -170 -8 -63 -22
-176 -30 -250 -9 -74 -18 -150 -21 -169 -2 -18 -7 -61 -10 -95 -10 -108 -41
-269 -63 -327 -24 -64 -70 -138 -155 -249 -31 -41 -75 -111 -96 -155 -72 -145
-73 -155 -78 -587 l-3 -388 915 0 916 0 0 359 c0 423 -5 462 -80 616 -27 55
-86 150 -131 210 -141 190 -149 217 -209 705 -17 140 -37 307 -45 370 -8 63
-17 135 -20 160 -2 25 -14 124 -26 221 l-22 177 22 52 c20 46 22 65 18 144 -2
50 -8 101 -12 113 -6 18 -2 24 18 32 32 12 37 28 37 110 0 54 -5 75 -23 102
-45 68 -51 69 -442 69 -269 -1 -357 -4 -380 -14z"/>
<path d="M1898 5336 c-42 -18 -77 -56 -88 -95 -6 -23 -10 -707 -10 -1930 0
-1893 0 -1895 21 -1937 15 -33 32 -49 72 -68 l51 -26 3060 0 c2964 0 3062 1
3102 19 23 10 52 34 65 52 l24 34 3 1926 2 1926 -22 33 c-13 18 -36 43 -51 54
l-28 21 -3087 2 c-2386 1 -3093 -1 -3114 -11z"/>
</g>
</svg>
