<?xml version="1.0" standalone="no"?>
<!DOCTYPE svg PUBLIC "-//W3C//DTD SVG 20010904//EN"
 "http://www.w3.org/TR/2001/REC-SVG-20010904/DTD/svg10.dtd">
<svg version="1.0" xmlns="http://www.w3.org/2000/svg"
 width="1024.000000pt" height="1024.000000pt" viewBox="0 0 1024.000000 1024.000000"
 preserveAspectRatio="xMidYMid meet">

<g transform="translate(0.000000,1024.000000) scale(0.100000,-0.100000)"
fill="#000000" stroke="none">
<path d="M2705 8926 c-16 -7 -38 -22 -47 -32 -60 -68 -65 -226 -8 -241 13 -4
19 -11 16 -22 -29 -96 -34 -216 -11 -261 9 -17 20 -30 24 -30 6 0 6 -12 0 -27
-4 -16 -20 -129 -34 -253 -14 -124 -32 -279 -40 -345 -8 -66 -24 -199 -35
-295 -42 -361 -52 -427 -77 -500 -30 -93 -52 -131 -148 -250 -120 -151 -181
-268 -204 -390 -5 -30 -10 -218 -11 -417 l0 -363 925 0 925 0 0 323 c0 342
-10 457 -49 571 -30 84 -83 176 -155 265 -80 99 -123 162 -142 208 -19 45 -50
188 -59 268 -3 33 -14 132 -25 220 -19 156 -55 466 -85 732 -8 73 -15 151 -15
173 0 23 -5 50 -10 61 -8 15 -7 21 4 25 39 15 46 167 12 261 -14 41 -14 42 7
45 30 4 47 43 47 113 0 78 -23 122 -80 152 -42 23 -49 23 -369 23 -248 -1
-333 -4 -356 -14z"/>
<path d="M4670 8922 c-19 -9 -45 -32 -57 -50 -43 -66 -38 -207 8 -219 23 -6
23 -4 4 -73 -8 -30 -15 -81 -15 -113 0 -59 21 -127 39 -127 7 0 7 -8 1 -22 -7
-19 -20 -118 -46 -363 -2 -22 -6 -60 -9 -85 -3 -25 -19 -166 -35 -315 -77
-697 -72 -677 -272 -941 -37 -49 -83 -120 -103 -159 -63 -125 -65 -147 -65
-572 l0 -383 905 0 905 0 0 345 c0 311 -2 355 -21 440 -35 163 -79 251 -235
468 -36 50 -71 111 -79 140 -20 65 -54 305 -106 742 -13 115 -29 252 -35 310
-3 28 -12 102 -20 165 -8 63 -14 132 -14 153 0 21 -5 47 -10 58 -8 13 -7 19 0
19 18 0 40 66 40 122 0 29 -7 80 -15 113 -18 77 -18 75 4 75 25 0 51 56 51
109 0 45 -21 105 -48 134 -39 44 -67 47 -411 47 -290 0 -330 -2 -361 -18z"/>
<path d="M6576 8917 c-54 -31 -76 -76 -76 -157 0 -69 17 -110 47 -110 10 0 13
-5 8 -17 -16 -40 -27 -102 -28 -170 -2 -60 2 -76 20 -102 17 -23 21 -36 14
-53 -4 -13 -11 -61 -15 -108 -7 -85 -81 -760 -112 -1025 -18 -161 -43 -279
-74 -350 -12 -27 -55 -94 -96 -148 -88 -117 -147 -229 -176 -335 -18 -70 -21
-114 -25 -459 l-5 -383 912 0 912 0 -5 373 c-3 312 -7 382 -21 437 -29 108
-99 237 -196 365 -137 179 -152 214 -180 415 -27 190 -128 1031 -136 1131 -4
46 -10 90 -14 98 -5 8 0 27 11 45 28 46 26 168 -5 263 -6 17 -3 22 16 25 31 4
50 47 50 113 1 74 -25 123 -81 152 -43 23 -49 23 -375 23 -324 0 -332 -1 -370
-23z"/>
<path d="M1884 5330 c-31 -12 -72 -66 -79 -103 -3 -18 -4 -885 -3 -1929 l3
-1896 30 -38 c17 -20 46 -45 65 -55 34 -18 132 -19 3037 -19 1652 0 3002 3
3001 8 0 4 -171 175 -378 380 l-376 373 -76 -30 c-202 -80 -356 -105 -609 -98
-165 4 -209 9 -296 31 -294 74 -522 203 -728 410 -209 211 -325 418 -400 713
-24 98 -30 166 -29 353 1 195 14 279 69 440 175 514 629 907 1162 1006 48 9
156 19 238 21 123 4 172 1 274 -16 419 -71 779 -305 1012 -656 74 -110 120
-206 164 -339 120 -362 106 -726 -42 -1075 l-36 -83 157 -157 156 -156 0 1424
0 1423 -39 39 -39 39 -3108 -1 c-1710 0 -3118 -4 -3130 -9z"/>
<path d="M6410 4663 c-313 -49 -561 -173 -775 -388 -184 -184 -290 -385 -339
-644 -21 -108 -21 -342 -1 -448 96 -506 510 -922 1014 -1017 287 -55 534 -17
811 125 l115 58 465 -463 c297 -295 479 -469 503 -480 120 -55 255 -9 313 106
34 67 37 146 7 203 -19 35 -262 282 -797 807 l-150 146 42 64 c269 413 269
961 0 1365 -29 43 -98 123 -153 179 -262 263 -573 397 -914 393 -64 -1 -127
-3 -141 -6z m345 -385 c170 -42 320 -131 448 -268 157 -167 237 -369 237 -602
0 -142 -32 -266 -106 -408 -111 -215 -324 -387 -563 -453 -113 -31 -333 -30
-451 1 -199 53 -381 173 -495 325 -59 77 -138 241 -161 332 -26 100 -26 313 0
415 37 150 112 284 226 403 227 239 547 334 865 255z"/>
</g>
</svg>
