<?xml version="1.0" standalone="no"?>
<!DOCTYPE svg PUBLIC "-//W3C//DTD SVG 20010904//EN" "http://www.w3.org/TR/2001/REC-SVG-20010904/DTD/svg10.dtd">
<svg xmlns="http://www.w3.org/2000/svg" version="1.0" width="1024.000000pt" height="1024.000000pt" viewBox="0 0 1024.000000 1024.000000" preserveAspectRatio="xMidYMid meet">
<metadata>
Created by potrace 1.16, written by Peter Selinger 2001-2019
<meta name="Producer" content="Online-Convert"/></metadata>
<g transform="translate(0.000000,1024.000000) scale(0.100000,-0.100000)" fill="#000000" stroke="none">
<path d="M2525 9151 c-62 -15 -100 -52 -124 -121 -17 -52 -44 -366 -36 -435 11 -103 63 -189 139 -232 15 -8 16 -19 7 -114 -6 -57 -15 -158 -21 -224 -12 -141 -17 -196 -30 -330 -5 -55 -12 -134 -15 -175 -3 -41 -10 -118 -15 -170 -5 -52 -12 -129 -15 -170 -12 -178 -12 -177 -68 -234 -29 -29 -74 -71 -102 -94 -130 -110 -228 -277 -272 -464 -26 -109 -27 -126 -32 -488 -6 -365 -7 -375 -26 -378 -11 -2 -38 -15 -60 -30 -40 -27 -65 -67 -127 -207 -56 -126 -141 -312 -298 -650 -138 -298 -163 -359 -167 -411 -7 -81 19 -142 78 -181 42 -28 43 -28 231 -31 l188 -3 1 -1382 c0 -760 2 -1392 5 -1405 8 -44 35 -82 76 -110 l42 -27 3245 -3 c2239 -2 3261 1 3295 8 61 13 113 51 132 96 12 29 14 252 14 1429 l0 1395 122 0 c137 0 184 9 226 45 45 37 75 116 66 173 -3 27 -50 143 -106 267 -55 121 -172 378 -260 570 -87 193 -171 365 -187 384 -15 19 -49 47 -77 61 l-49 27 -2 363 c-3 407 -10 475 -68 618 -50 124 -86 173 -236 327 -75 77 -142 150 -148 163 -7 12 -16 70 -21 130 -5 59 -16 179 -25 267 -8 88 -26 286 -40 440 -14 154 -30 331 -36 394 l-11 114 46 40 c98 83 115 166 91 442 -17 195 -49 270 -131 306 -40 18 -73 19 -551 19 -470 -1 -511 -2 -549 -19 -81 -37 -99 -79 -119 -291 -19 -195 -15 -301 14 -362 22 -45 82 -110 112 -120 11 -4 10 -35 -5 -189 -21 -218 -21 -215 -36 -399 -6 -80 -18 -208 -25 -285 -8 -77 -17 -178 -20 -225 -3 -47 -8 -96 -10 -110 -3 -14 -7 -53 -10 -88 -7 -78 -18 -94 -141 -201 -93 -81 -158 -161 -208 -254 l-25 -48 -27 53 c-44 87 -98 160 -165 222 -173 160 -167 154 -174 199 -8 59 -53 553 -60 657 -3 47 -17 213 -31 369 l-26 285 41 34 c61 50 89 106 101 195 5 43 7 89 5 104 -3 16 -7 66 -9 113 -12 200 -30 265 -87 314 -23 19 -56 36 -77 40 -65 10 -1014 7 -1054 -4 -86 -24 -132 -106 -142 -255 -25 -355 -21 -386 65 -479 l51 -56 -21 -268 c-30 -383 -61 -785 -66 -872 -16 -236 -12 -226 -125 -320 -41 -34 -97 -87 -123 -118 -51 -60 -127 -180 -127 -200 0 -23 -18 -12 -29 18 -18 53 -109 175 -179 241 -37 34 -88 83 -115 107 -26 25 -49 54 -52 66 -5 24 -42 392 -50 506 -3 41 -10 113 -15 160 -5 47 -12 126 -15 175 -4 50 -15 171 -26 269 -24 228 -24 243 1 251 10 3 38 27 60 52 64 73 82 163 66 323 -3 36 -8 95 -11 132 -12 154 -40 218 -114 255 -44 22 -47 22 -555 22 -281 -1 -525 -4 -541 -8z m775 -464 c0 -29 -5 -58 -12 -65 -9 -9 -77 -12 -245 -12 l-233 0 0 65 0 65 245 0 245 0 0 -53z m2070 -12 l0 -65 -245 0 -245 0 0 65 0 65 245 0 245 0 0 -65z m2059 0 l-2 -65 -241 2 -241 3 -3 63 -3 62 246 0 245 0 -1 -65z m-4214 -520 c8 -63 24 -233 30 -315 3 -41 21 -239 40 -440 19 -201 39 -413 44 -472 7 -71 17 -120 30 -147 11 -21 73 -87 138 -147 162 -150 200 -191 228 -249 47 -95 53 -159 51 -523 l-1 -337 -713 -3 -712 -2 0 333 c1 517 9 537 298 796 92 81 115 118 131 206 10 52 85 824 106 1080 2 22 6 65 10 95 8 71 14 131 14 150 1 13 25 15 151 15 l150 0 5 -40z m2060 33 c2 -2 6 -43 9 -93 3 -49 26 -288 51 -530 24 -242 47 -476 50 -520 8 -119 16 -174 35 -245 10 -39 32 -66 170 -200 94 -93 166 -172 179 -197 12 -24 30 -80 41 -125 18 -74 20 -119 20 -420 l0 -338 -706 0 -705 0 3 363 c4 357 4 363 29 437 35 103 83 175 170 251 148 129 201 197 214 272 4 22 59 564 69 687 14 154 18 195 36 385 11 110 22 218 25 240 l5 40 151 -2 c83 -1 153 -3 154 -5z m2061 -15 c1 -10 5 -49 8 -88 11 -133 116 -1200 121 -1234 13 -85 56 -141 229 -295 108 -96 160 -180 192 -312 4 -16 9 -185 11 -376 l4 -348 -716 0 -716 0 3 378 3 377 29 73 c34 86 76 135 233 274 62 54 124 119 138 143 25 41 29 71 80 592 30 301 57 577 59 613 10 127 21 225 25 225 1 0 67 -1 148 -2 133 -2 147 -4 149 -20z m6 -3111 c-2 -13 -25 -70 -51 -125 -26 -56 -90 -195 -142 -309 l-94 -208 -2437 0 -2438 0 0 335 0 335 2583 -2 2582 -3 -3 -23z m818 -1772 l0 -1800 -120 0 -120 0 0 1800 0 1800 120 0 120 0 0 -1800z m-650 -345 l0 -1455 -2665 0 -2665 0 0 1260 0 1260 2528 0 c2801 0 2589 -5 2650 64 16 18 54 98 87 179 32 81 60 147 62 147 1 0 3 -655 3 -1455z"/>
<path d="M3828 3670 c-42 -13 -84 -47 -110 -88 l-23 -37 -3 -520 -3 -520 23 -45 c14 -26 41 -57 66 -75 l44 -30 979 -3 c645 -2 993 1 1018 8 53 14 101 49 125 90 20 34 21 48 21 566 l0 530 -27 41 c-15 22 -44 51 -65 64 l-38 24 -990 2 c-544 1 -1002 -2 -1017 -7z m1742 -645 l0 -265 -735 2 -736 3 -2 263 -2 262 738 0 737 0 0 -265z"/>
</g>
</svg>
