<?xml version="1.0" standalone="no"?>
<!DOCTYPE svg PUBLIC "-//W3C//DTD SVG 20010904//EN"
 "http://www.w3.org/TR/2001/REC-SVG-20010904/DTD/svg10.dtd">
<svg version="1.0" xmlns="http://www.w3.org/2000/svg"
 width="1024.000000pt" height="1024.000000pt" viewBox="0 0 1024.000000 1024.000000"
 preserveAspectRatio="xMidYMid meet">

<g transform="translate(0.000000,1024.000000) scale(0.100000,-0.100000)"
fill="#000000" stroke="none">
<path d="M3345 8455 c-167 -26 -354 -100 -510 -203 -38 -25 -122 -98 -186
-161 -241 -242 -353 -483 -378 -817 -26 -342 60 -652 252 -913 60 -81 191
-209 274 -268 l73 -50 -48 -18 c-253 -95 -517 -264 -727 -467 -502 -483 -738
-1146 -674 -1893 16 -185 52 -275 146 -367 104 -101 233 -157 512 -223 492
-117 970 -163 1556 -152 442 9 730 33 1064 88 511 84 737 188 875 399 20 30
36 47 36 37 0 -35 98 -314 140 -397 240 -480 722 -850 1245 -957 72 -14 136
-18 325 -18 266 1 338 12 563 86 370 121 656 327 893 644 271 362 397 833 339
1270 -70 526 -357 988 -795 1279 -186 124 -477 240 -685 274 l-106 17 -80 92
c-189 219 -457 412 -694 498 -27 10 -51 19 -52 20 -1 0 33 37 76 82 182 190
296 412 336 652 25 148 17 360 -19 496 -37 142 -136 339 -218 431 -126 142
-298 269 -454 334 -283 118 -639 102 -925 -40 -504 -250 -750 -851 -569 -1392
59 -175 146 -315 284 -455 l91 -92 -75 -30 c-144 -58 -326 -174 -459 -290 -35
-31 -78 -68 -96 -83 l-33 -28 -143 73 c-79 40 -179 86 -222 103 l-78 31 48 31
c82 53 214 173 282 258 161 200 239 390 277 674 52 399 -84 797 -371 1086
-177 178 -352 278 -594 341 -122 31 -357 40 -496 18z m429 -385 c151 -38 333
-151 434 -268 99 -115 173 -254 214 -402 33 -121 32 -345 -1 -474 -46 -179
-121 -305 -258 -437 -101 -96 -167 -143 -285 -199 -129 -62 -192 -75 -343 -74
-157 2 -248 23 -381 89 -208 102 -360 262 -457 481 -81 185 -94 436 -31 652
84 288 327 533 620 621 143 44 343 48 488 11z m2408 -139 c140 -36 278 -120
385 -234 75 -80 125 -162 165 -269 26 -70 32 -101 36 -198 6 -165 -14 -269
-74 -389 -79 -156 -249 -316 -412 -388 -161 -71 -399 -69 -558 6 -235 110
-412 318 -460 541 -24 108 -24 316 0 400 59 212 195 379 386 475 124 62 170
72 336 74 90 1 140 -4 196 -18z m101 -1925 c252 -55 459 -151 675 -314 40 -30
71 -56 69 -59 -2 -2 -49 -14 -103 -28 -217 -52 -443 -155 -624 -283 -126 -89
-319 -282 -407 -407 -111 -157 -212 -353 -245 -477 -6 -27 -15 -48 -19 -48 -3
0 -9 22 -13 50 -17 125 -104 377 -192 552 -101 200 -206 348 -369 516 l-109
113 34 27 c255 205 526 329 819 377 129 22 336 13 484 -19z m-2553 -211 c336
-51 665 -200 929 -420 197 -164 347 -353 455 -570 137 -276 186 -526 186 -946
0 -235 -5 -256 -73 -316 -229 -201 -1528 -322 -2447 -227 -173 17 -213 24
-480 75 -365 70 -478 121 -528 239 -20 47 -11 467 13 620 63 407 240 740 556
1045 141 136 281 236 444 318 329 164 653 227 945 182z m3348 -1438 l281 -283
283 283 283 283 117 -117 c65 -65 118 -120 118 -123 0 -3 -125 -131 -277 -284
l-277 -277 285 -285 284 -285 -125 -119 -125 -119 -284 284 -285 284 -282
-287 -283 -287 -123 122 -123 123 283 283 282 282 -282 282 -283 283 120 120
c66 66 122 120 125 120 3 0 133 -127 288 -283z"/>
</g>
</svg>
