<?xml version="1.0" standalone="no"?>
<!DOCTYPE svg PUBLIC "-//W3C//DTD SVG 20010904//EN"
 "http://www.w3.org/TR/2001/REC-SVG-20010904/DTD/svg10.dtd">
<svg version="1.0" xmlns="http://www.w3.org/2000/svg"
 width="1024.000000pt" height="1024.000000pt" viewBox="0 0 1024.000000 1024.000000"
 preserveAspectRatio="xMidYMid meet">

<g transform="translate(0.000000,1024.000000) scale(0.100000,-0.100000)"
fill="#000000" stroke="none">
<path d="M4090 8520 c-341 -42 -656 -195 -895 -435 -248 -248 -386 -538 -426
-895 -46 -408 112 -859 410 -1172 46 -49 82 -90 80 -92 -2 -2 -51 -22 -109
-45 -450 -178 -886 -595 -1130 -1081 -169 -336 -270 -794 -270 -1227 0 -440
111 -575 568 -687 495 -122 1055 -167 2056 -166 467 0 604 7 762 39 49 10 89
18 90 17 0 0 31 -48 69 -106 49 -74 108 -143 200 -235 191 -192 373 -313 605
-403 250 -98 421 -127 700 -119 216 6 338 26 517 88 144 50 336 148 463 237
115 81 324 287 401 397 172 243 282 515 325 807 24 163 15 439 -20 598 -153
707 -682 1239 -1372 1379 -220 45 -483 51 -689 16 -90 -16 -267 -66 -295 -84
-11 -8 -42 17 -132 104 -218 213 -449 363 -701 459 l-59 23 51 42 c161 135
326 403 395 643 80 278 72 642 -20 900 -132 370 -402 677 -750 851 -98 49
-257 103 -375 127 -115 24 -338 33 -449 20z m454 -445 c167 -49 313 -134 444
-260 108 -102 172 -188 226 -300 60 -123 82 -192 100 -317 20 -132 20 -227 1
-344 -37 -227 -114 -380 -278 -551 -137 -142 -279 -231 -467 -293 -353 -115
-756 -22 -1045 242 -137 125 -271 343 -317 513 -32 120 -37 375 -10 507 37
177 135 363 270 509 122 131 342 263 507 304 157 39 418 34 569 -10z m-289
-2499 c121 1 326 3 455 5 200 3 248 1 320 -14 158 -34 276 -85 425 -181 78
-51 242 -182 278 -223 17 -19 16 -21 -22 -46 -85 -57 -224 -182 -297 -270
-209 -249 -351 -548 -406 -857 -17 -99 -22 -163 -22 -310 0 -190 11 -280 54
-450 11 -41 16 -78 12 -82 -39 -37 -1143 -36 -1727 2 -523 34 -1042 129 -1135
206 -43 36 -54 107 -46 279 13 260 60 543 122 735 110 338 371 709 646 918 97
74 265 169 371 210 188 73 328 94 577 84 96 -4 274 -6 395 -6z m2242 -1401
l258 -265 185 196 c102 108 227 235 279 283 l94 86 113 -119 c63 -66 114 -123
114 -128 0 -9 -267 -286 -453 -472 l-89 -88 276 -277 c152 -152 276 -281 276
-286 0 -5 -53 -63 -117 -127 l-118 -118 -281 281 -281 281 -272 -271 c-150
-149 -278 -271 -285 -271 -7 0 -61 50 -121 110 -97 100 -107 113 -97 133 6 12
125 141 266 287 l255 265 -275 277 c-151 152 -274 282 -274 290 0 7 52 64 115
126 l114 114 30 -21 c17 -12 146 -141 288 -286z"/>
</g>
</svg>
